<svg xmlns="http://www.w3.org/2000/svg" width="33" height="37" viewBox="0 0 33 37">
    <g fill="none" fill-rule="evenodd">
        <path fill="#787878" d="M19.131 34.416c-1.916 1.391-4.346 1.391-6.262 0L1.529 26.18C.577 25.49 0 24.28 0 22.976V4.4C0 1.97 1.97 0 4.4 0h23.2C30.03 0 32 1.97 32 4.4v18.576c0 1.303-.578 2.514-1.528 3.204l-11.34 8.236z"/>
        <path fill="#FFF" fill-rule="nonzero" d="M4.159 17.73v-5.123h1.883v-1.026H1.034v1.026h1.858v5.122h1.267zm3.716 0v-3.248c.16-.276.42-.414.777-.414.262 0 .45.063.562.188.112.125.169.319.169.58v2.893h1.22v-2.926c-.014-1.152-.516-1.727-1.507-1.727-.49 0-.897.194-1.22.583v-2.416H6.654v6.486h1.22zm5.135.084c.532 0 .949-.183 1.25-.55l.034.465h1.149v-3.395c.43-.045.746-.19.948-.437.201-.246.302-.626.302-1.138h-.73c0 .352-.04.594-.117.726-.077.133-.212.22-.403.262v-.587h-1.225v3.235c-.155.287-.44.43-.853.43-.434 0-.65-.237-.65-.713V13.16h-1.22v2.994c.005.544.136.956.394 1.238.258.281.631.422 1.121.422zm6.364-5.262l-.836-1.309h-1.33l1.165 1.31h1.001zm-.604 5.262c.437 0 .818-.096 1.143-.287.325-.192.575-.465.751-.82.176-.354.264-.76.264-1.216v-.088c0-.442-.083-.837-.249-1.183.498-.225.748-.72.748-1.486h-.744c0 .242-.022.448-.067.618-.045.17-.133.297-.262.378-.394-.436-.925-.654-1.592-.654-.43 0-.81.096-1.14.289-.33.193-.582.467-.758.821-.176.355-.264.76-.264 1.217l.004.24c.031.665.242 1.193.633 1.584.392.391.903.587 1.533.587zm0-.984c-.304 0-.537-.115-.7-.344-.164-.23-.246-.561-.246-.995 0-.487.082-.846.245-1.079.164-.232.395-.348.693-.348.304 0 .538.117.7.353.164.235.246.563.246.986 0 .495-.082.857-.245 1.085-.163.228-.394.342-.693.342zm4.249.9v-3.223c.171-.292.429-.439.772-.439.262 0 .45.059.562.175.113.117.17.305.17.564v2.922h1.22v-2.951c-.006-.566-.127-.991-.364-1.276-.236-.284-.597-.426-1.08-.426-.55 0-.988.204-1.314.612l-.038-.528h-1.149v4.57h1.22zm5.452 1.798c.442 0 .827-.077 1.157-.232.329-.155.585-.38.766-.675.182-.296.272-.644.272-1.044V13.16H29.56l-.05.431c-.28-.344-.67-.515-1.17-.515-.566 0-1.016.214-1.35.642-.333.428-.5.992-.5 1.693v.05c0 .71.17 1.28.509 1.709.34.43.783.644 1.332.644.46 0 .83-.16 1.11-.477v.245c0 .318-.09.563-.27.737-.18.173-.432.26-.755.26-.434 0-.803-.171-1.107-.512l-.54.744c.163.21.404.383.722.517.318.134.645.2.98.2zm.173-2.702c-.29 0-.518-.118-.684-.353-.167-.235-.25-.56-.25-.973 0-.476.084-.834.252-1.073.167-.24.397-.359.69-.359.363 0 .627.14.79.418v1.922c-.16.278-.427.418-.798.418z"/>
    </g>
</svg>
