<?xml version="1.0" encoding="UTF-8"?>
<svg width="37px" height="41px" viewBox="0 0 37 41" version="1.1" xmlns="http://www.w3.org/2000/svg" xmlns:xlink="http://www.w3.org/1999/xlink">
    <title>VIP 1</title>
    <g id="Symbols" stroke="none" stroke-width="1" fill="none" fill-rule="evenodd">
        <g id="*Element/TagVip1.1">
            <g id="VIP-1">
                <g id="Group-3" fill="#993393">
                    <path d="M22.1206113,39.7938698 C19.9052602,41.4024434 17.0944998,41.4024434 14.8791487,39.7938698 L1.76703528,30.2712852 C0.668001778,29.4731054 -0.00012,28.0727792 -0.00012,26.5661919 L-0.00012,4.0003 C-0.00012,1.791161 1.790741,0.0003 3.99988,0.0003 L32.99988,0.0003 C35.209019,0.0003 36.99988,1.791161 36.99988,4.0003 L36.99988,26.5661919 L36.99988,26.5661919 C36.99988,28.0727792 36.3317582,29.4731054 35.2327247,30.2712852 L22.1206113,39.7938698 Z" id="Fill-1"></path>
                </g>
                <g id="text" transform="translate(7.000000, 9.000000)" fill="#FFFFFF">
                    <polygon id="Fill-4" points="3.48110762 10 0.0522606396 0 2.03833008 0 4.55226064 8.00038578 7.06683415 0 9.05226064 0 5.62405661 10"></polygon>
                    <polygon id="Fill-6" points="10.0522606 10 12.0522606 10 12.0522606 0 10.0522606 0"></polygon>
                    <path d="M15.4077581,4.89309791 L17.5408579,4.89309791 C17.950928,4.89309791 18.2788614,4.7576244 18.5252712,4.48603531 C18.7710681,4.21508828 18.894273,3.78041734 18.894273,3.18138042 C18.894273,2.60096308 18.7710681,2.17078652 18.5252712,1.88956661 C18.2788614,1.60963082 17.950928,1.46902087 17.5408579,1.46902087 L15.4077581,1.46902087 L15.4077581,4.89309791 Z M17.8240453,0 C18.2500523,0 18.6374428,0.0712680578 18.9862169,0.213804173 C19.334991,0.356982343 19.6316635,0.563723917 19.8768474,0.834670947 C20.1208054,1.10561798 20.3114358,1.43820225 20.4475129,1.83242376 C20.582977,2.22792937 20.6510155,2.67736758 20.6510155,3.18138042 C20.6510155,3.70401284 20.582977,4.16500803 20.4468999,4.56436597 C20.3108229,4.96436597 20.1177406,5.2975923 19.868266,5.56340289 C19.6181784,5.82985554 19.3184411,6.02953451 18.969667,6.16308186 C18.619667,6.29598716 18.2359542,6.36211878 17.8185287,6.36211878 L15.4077581,6.36211878 L15.4077581,10 L13.6510155,10 L13.6510155,0.0141252006 L17.8240453,0 Z" id="Fill-8"></path>
                    <polygon id="Fill-9" points="9.88884721 23 9.88884721 16.4608817 8.05526382 17.6129865 7 16.223193 10.5140035 14 12 14 12 23"></polygon>
                </g>
            </g>
        </g>
    </g>
</svg>