<?xml version="1.0" encoding="UTF-8"?>
<svg width="37px" height="41px" viewBox="0 0 37 41" version="1.1" xmlns="http://www.w3.org/2000/svg" xmlns:xlink="http://www.w3.org/1999/xlink">
    <title>VIP 2</title>
    <g id="Symbols" stroke="none" stroke-width="1" fill="none" fill-rule="evenodd">
        <g id="*Element/TagVip1.2">
            <g id="VIP-2">
                <path d="M22.1207313,39.7935698 C19.9053802,41.4021434 17.0946198,41.4021434 14.8792687,39.7935698 L1.76715528,30.2709852 C0.668121778,29.4728054 0,28.0724792 0,26.5658919 L0,4 C-2.705415e-16,1.790861 1.790861,4.05812251e-16 4,0 L33,0 C35.209139,-1.29399067e-15 37,1.790861 37,4 L37,26.5658919 L37,26.5658919 C37,28.0724792 36.3318782,29.4728054 35.2328447,30.2709852 L22.1207313,39.7935698 Z" id="Fill-1" fill="#DD8C43"></path>
                <g id="Group" transform="translate(7.000000, 9.000000)" fill="#FFFFFF">
                    <path d="M7.05049168,14.5218838 C7.41187595,14.3915596 7.85098336,14.2718022 8.36781392,14.1631987 C8.88464448,14.0545953 9.40771558,14 9.93702723,14 C10.357413,14 10.751702,14.0440284 11.1215961,14.1309112 C11.4914902,14.217207 11.8148638,14.3616202 12.0922844,14.5606288 C12.369705,14.7613985 12.5881241,15.0302655 12.7481089,15.369578 C12.9075265,15.7088905 12.9875189,16.1262801 12.9875189,16.6217468 C12.9875189,16.969865 12.9495083,17.2763029 12.8740545,17.5416476 C12.7986006,17.8069924 12.6658472,18.0435718 12.4769289,18.2519731 C12.2880106,18.4609615 12.0293116,18.6435327 11.7019667,18.800274 C11.3740545,18.9570152 10.9582073,19.1002544 10.4538578,19.2305786 C10.1764372,19.300437 9.94099849,19.3679473 9.74810893,19.4325223 C9.55465204,19.4982715 9.39920575,19.5875024 9.28177005,19.7002153 C9.16376702,19.8135151 9.07753404,19.9567543 9.0230711,20.1311069 C8.96804085,20.3048725 8.9413767,20.5302981 8.9413767,20.8091449 L8.9413767,21.4349358 L13,21.4349358 L13,23 L7,23 L7.0255295,20.8091449 C7.0255295,20.3130911 7.09474281,19.8851347 7.23316944,19.5241015 C7.37159607,19.1630683 7.57129349,18.8548692 7.8316944,18.5977431 C8.09209531,18.3417911 8.41149773,18.1328028 8.78990166,17.9719523 C9.16773828,17.8116887 9.59209531,17.6784293 10.0629728,17.5739352 C10.272882,17.5216881 10.4430787,17.4717892 10.5735628,17.4236514 C10.7034796,17.3761007 10.8067322,17.3179832 10.8821861,17.2481247 C10.9582073,17.1782663 11.0086989,17.0937317 11.0336611,16.9939339 C11.0586233,16.893549 11.0711044,16.7696823 11.0711044,16.6217468 C11.0711044,16.2219686 10.9684191,15.9484052 10.7624811,15.8004696 C10.5565431,15.6525341 10.2649395,15.5785663 9.88653555,15.5785663 C9.50869894,15.5785663 9.09228442,15.6349227 8.63842663,15.7482226 C8.18513616,15.8609354 7.74375946,15.9742352 7.31486384,16.086948 L7.05049168,14.5218838 Z" id="Fill-14"></path>
                    <polygon id="Fill-4" points="3.42884698 10 0 0 1.98606944 0 4.5 8.00038578 7.01457351 0 9 0 5.57179597 10"></polygon>
                    <polygon id="Fill-6" points="10 10 12 10 12 0 10 0"></polygon>
                    <path d="M15.7567426,4.89309791 L17.8898424,4.89309791 C18.2999124,4.89309791 18.6278459,4.7576244 18.8742557,4.48603531 C19.1200525,4.21508828 19.2432574,3.78041734 19.2432574,3.18138042 C19.2432574,2.60096308 19.1200525,2.17078652 18.8742557,1.88956661 C18.6278459,1.60963082 18.2999124,1.46902087 17.8898424,1.46902087 L15.7567426,1.46902087 L15.7567426,4.89309791 Z M18.1730298,0 C18.5990368,0 18.9864273,0.0712680578 19.3352014,0.213804173 C19.6839755,0.356982343 19.980648,0.563723917 20.2258319,0.834670947 C20.4697898,1.10561798 20.6604203,1.43820225 20.7964974,1.83242376 C20.9319615,2.22792937 21,2.67736758 21,3.18138042 C21,3.70401284 20.9319615,4.16500803 20.7958844,4.56436597 C20.6598074,4.96436597 20.466725,5.2975923 20.2172504,5.56340289 C19.9671629,5.82985554 19.6674256,6.02953451 19.3186515,6.16308186 C18.9686515,6.29598716 18.5849387,6.36211878 18.1675131,6.36211878 L15.7567426,6.36211878 L15.7567426,10 L14,10 L14,0.0141252006 L18.1730298,0 Z" id="Fill-8"></path>
                </g>
            </g>
        </g>
    </g>
</svg>