<?xml version="1.0" encoding="UTF-8"?>
<svg width="37px" height="41px" viewBox="0 0 37 41" version="1.1" xmlns="http://www.w3.org/2000/svg" xmlns:xlink="http://www.w3.org/1999/xlink">
    <title>VIP 3</title>
    <g id="Symbols" stroke="none" stroke-width="1" fill="none" fill-rule="evenodd">
        <g id="*Element/TagVip1.3">
            <g id="VIP-3">
                <path d="M22.1207313,39.7935698 C19.9053802,41.4021434 17.0946198,41.4021434 14.8792687,39.7935698 L1.76715528,30.2709852 C0.668121778,29.4728054 0,28.0724792 0,26.5658919 L0,4 C-2.705415e-16,1.790861 1.790861,4.05812251e-16 4,0 L33,0 C35.209139,-1.29399067e-15 37,1.790861 37,4 L37,26.5658919 L37,26.5658919 C37,28.0724792 36.3318782,29.4728054 35.2328447,30.2709852 L22.1207313,39.7935698 Z" id="Fill-1" fill="#BC975C"></path>
                <g id="Group" transform="translate(7.052261, 9.000000)" fill="#FFFFFF">
                    <path d="M10.8984132,17.5709146 C10.9678885,17.562083 11.0403077,17.5561952 11.1144933,17.551485 C11.18809,17.5467748 11.2599204,17.5444197 11.3299846,17.5444197 C11.4954301,17.5444197 11.6526327,17.5579615 11.8010038,17.5838676 C12.3332555,17.6886694 12.7495188,17.9436085 13.0503823,18.3492738 C13.3512458,18.7549392 13.5013832,19.3242837 13.5013832,20.0567186 C13.5013832,20.6148764 13.4230763,21.0811854 13.2658736,21.4562345 C13.1092597,21.8312835 12.8825817,22.1345022 12.5858396,22.3658904 C12.2890975,22.5966898 11.9252351,22.7597802 11.4936637,22.8563391 C11.0620924,22.9517205 10.5710548,23 10.0217286,23 C9.55954101,23 9.07085855,22.9740939 8.55685882,22.9216931 C8.04168153,22.8687034 7.50589715,22.7992281 6.94773936,22.7115007 L7.20915503,21.2077718 C7.61069893,21.2601727 8.02460708,21.316695 8.45205704,21.3779275 C8.87950699,21.4385712 9.27634069,21.4691875 9.64255815,21.4691875 C10.2613597,21.4691875 10.7259024,21.3643857 11.0355975,21.1553709 C11.3452927,20.9457674 11.5001403,20.5795499 11.5001403,20.0567186 C11.5001403,19.8035457 11.4671689,19.5921758 11.401815,19.4220201 C11.3364611,19.2518645 11.2493225,19.1170352 11.1403993,19.0163548 C11.0314761,18.9162632 10.9001795,18.8444328 10.7482758,18.8008635 C10.5951945,18.7572943 10.4321041,18.7355096 10.2572382,18.7355096 C10.0134858,18.7355096 9.76031296,18.7678922 9.49889728,18.8332461 C9.23689283,18.8986 8.99255161,18.9704305 8.7658736,19.0493262 L8.16414653,18.0024859 L10.7412105,15.5696716 L7.22210806,15.5696716 L7.22210806,14 L13.1222127,14 L13.1222127,15.360068 L10.8984132,17.5709146 Z" id="Fill-9"></path>
                    <polygon id="Fill-4" points="3.42884698 10 0 0 1.98606944 0 4.5 8.00038578 7.01457351 0 9 0 5.57179597 10"></polygon>
                    <polygon id="Fill-6" points="10 10 12 10 12 0 10 0"></polygon>
                    <path d="M15.3554974,4.89309791 L17.4885973,4.89309791 C17.8986673,4.89309791 18.2266008,4.7576244 18.4730106,4.48603531 C18.7188074,4.21508828 18.8420123,3.78041734 18.8420123,3.18138042 C18.8420123,2.60096308 18.7188074,2.17078652 18.4730106,1.88956661 C18.2266008,1.60963082 17.8986673,1.46902087 17.4885973,1.46902087 L15.3554974,1.46902087 L15.3554974,4.89309791 Z M17.7717847,0 C18.1977917,0 18.5851822,0.0712680578 18.9339563,0.213804173 C19.2827304,0.356982343 19.5794029,0.563723917 19.8245868,0.834670947 C20.0685447,1.10561798 20.2591752,1.43820225 20.3952523,1.83242376 C20.5307164,2.22792937 20.5987549,2.67736758 20.5987549,3.18138042 C20.5987549,3.70401284 20.5307164,4.16500803 20.3946393,4.56436597 C20.2585622,4.96436597 20.0654799,5.2975923 19.8160053,5.56340289 C19.5659178,5.82985554 19.2661805,6.02953451 18.9174064,6.16308186 C18.5674064,6.29598716 18.1836936,6.36211878 17.766268,6.36211878 L15.3554974,6.36211878 L15.3554974,10 L13.5987549,10 L13.5987549,0.0141252006 L17.7717847,0 Z" id="Fill-8"></path>
                </g>
            </g>
        </g>
    </g>
</svg>