<?xml version="1.0" encoding="UTF-8"?>
<svg width="654px" height="342px" viewBox="0 0 654 342" version="1.1" xmlns="http://www.w3.org/2000/svg" xmlns:xlink="http://www.w3.org/1999/xlink">
    <!-- Generator: Sketch 61.2 (89653) - https://sketch.com -->
    <title>Group 6</title>
    <desc>Created with Sketch.</desc>
    <defs>
        <linearGradient x1="491.476563%" y1="-103.356834%" x2="50%" y2="100%" id="linearGradient-1">
            <stop stop-color="#ABC6F1" offset="0%"></stop>
            <stop stop-color="#7294DE" offset="100%"></stop>
        </linearGradient>
        <linearGradient x1="453.410209%" y1="-103.356834%" x2="50%" y2="100%" id="linearGradient-2">
            <stop stop-color="#ABC6F1" offset="0%"></stop>
            <stop stop-color="#7294DE" offset="100%"></stop>
        </linearGradient>
        <linearGradient x1="489.932005%" y1="-103.356834%" x2="50%" y2="100%" id="linearGradient-3">
            <stop stop-color="#ABC6F1" offset="0%"></stop>
            <stop stop-color="#7294DE" offset="100%"></stop>
        </linearGradient>
        <linearGradient x1="507.760188%" y1="-103.356834%" x2="50%" y2="100%" id="linearGradient-4">
            <stop stop-color="#ABC6F1" offset="0%"></stop>
            <stop stop-color="#7294DE" offset="100%"></stop>
        </linearGradient>
        <linearGradient x1="526.493173%" y1="-103.356834%" x2="50%" y2="100%" id="linearGradient-5">
            <stop stop-color="#ABC6F1" offset="0%"></stop>
            <stop stop-color="#7294DE" offset="100%"></stop>
        </linearGradient>
        <linearGradient x1="546.43611%" y1="-103.356834%" x2="50%" y2="100%" id="linearGradient-6">
            <stop stop-color="#ABC6F1" offset="0%"></stop>
            <stop stop-color="#7294DE" offset="100%"></stop>
        </linearGradient>
        <linearGradient x1="554.405273%" y1="-103.356834%" x2="50%" y2="100%" id="linearGradient-7">
            <stop stop-color="#ABC6F1" offset="0%"></stop>
            <stop stop-color="#7294DE" offset="100%"></stop>
        </linearGradient>
        <linearGradient x1="565.01298%" y1="-103.356834%" x2="50%" y2="100%" id="linearGradient-8">
            <stop stop-color="#ABC6F1" offset="0%"></stop>
            <stop stop-color="#7294DE" offset="100%"></stop>
        </linearGradient>
        <linearGradient x1="570.303096%" y1="-103.356834%" x2="50%" y2="100%" id="linearGradient-9">
            <stop stop-color="#ABC6F1" offset="0%"></stop>
            <stop stop-color="#7294DE" offset="100%"></stop>
        </linearGradient>
        <linearGradient x1="578.262828%" y1="-103.356834%" x2="50%" y2="100%" id="linearGradient-10">
            <stop stop-color="#ABC6F1" offset="0%"></stop>
            <stop stop-color="#7294DE" offset="100%"></stop>
        </linearGradient>
        <linearGradient x1="585.168151%" y1="-102.437155%" x2="50%" y2="99.7001506%" id="linearGradient-11">
            <stop stop-color="#ABC6F1" offset="0%"></stop>
            <stop stop-color="#7294DE" offset="100%"></stop>
        </linearGradient>
        <linearGradient x1="585.168151%" y1="-99.9584504%" x2="50%" y2="98.8920011%" id="linearGradient-12">
            <stop stop-color="#ABC6F1" offset="0%"></stop>
            <stop stop-color="#7294DE" offset="100%"></stop>
        </linearGradient>
        <linearGradient x1="585.168151%" y1="-98.6018739%" x2="50%" y2="98.449707%" id="linearGradient-13">
            <stop stop-color="#ABC6F1" offset="0%"></stop>
            <stop stop-color="#7294DE" offset="100%"></stop>
        </linearGradient>
        <linearGradient x1="585.168151%" y1="-96.6979912%" x2="50%" y2="97.8289709%" id="linearGradient-14">
            <stop stop-color="#ABC6F1" offset="0%"></stop>
            <stop stop-color="#7294DE" offset="100%"></stop>
        </linearGradient>
        <linearGradient x1="585.168151%" y1="-95.0313433%" x2="50%" y2="97.285582%" id="linearGradient-15">
            <stop stop-color="#ABC6F1" offset="0%"></stop>
            <stop stop-color="#7294DE" offset="100%"></stop>
        </linearGradient>
        <linearGradient x1="585.168151%" y1="-94.8295937%" x2="50%" y2="97.2198042%" id="linearGradient-16">
            <stop stop-color="#ABC6F1" offset="0%"></stop>
            <stop stop-color="#7294DE" offset="100%"></stop>
        </linearGradient>
        <linearGradient x1="585.168151%" y1="-93.4455324%" x2="50%" y2="96.768549%" id="linearGradient-17">
            <stop stop-color="#ABC6F1" offset="0%"></stop>
            <stop stop-color="#7294DE" offset="100%"></stop>
        </linearGradient>
        <linearGradient x1="585.168151%" y1="-91.632279%" x2="50%" y2="96.1773613%" id="linearGradient-18">
            <stop stop-color="#ABC6F1" offset="0%"></stop>
            <stop stop-color="#7294DE" offset="100%"></stop>
        </linearGradient>
        <linearGradient x1="585.168151%" y1="-90.5481093%" x2="50%" y2="95.8238819%" id="linearGradient-19">
            <stop stop-color="#ABC6F1" offset="0%"></stop>
            <stop stop-color="#7294DE" offset="100%"></stop>
        </linearGradient>
        <linearGradient x1="585.168151%" y1="-90.5828834%" x2="50%" y2="95.8352196%" id="linearGradient-20">
            <stop stop-color="#ABC6F1" offset="0%"></stop>
            <stop stop-color="#7294DE" offset="100%"></stop>
        </linearGradient>
    </defs>
    <g id="Home" stroke="none" stroke-width="1" fill="none" fill-rule="evenodd">
        <g id="Home-1920-Chưa-ĐK-ĐN" transform="translate(-161.000000, -124.000000)">
            <g id="Featire-items" transform="translate(-290.000000, -155.000000)">
                <g id="Rectangle-3">
                    <g id="Group-21" transform="translate(290.000000, 259.000000)">
                        <g id="Group-6" transform="translate(159.000000, -96.000000)">
                            <g id="Group-90" opacity="0.477701823" transform="translate(2.000000, 146.000000)" fill="#4E90F4">
                                <path d="M356.1528,233.3021 C356.1528,241.0561 349.8678,247.3401 342.1148,247.3401 C334.3618,247.3401 328.0768,241.0561 328.0768,233.3021 C328.0768,225.5491 334.3618,219.2651 342.1148,219.2651 C349.8678,219.2651 356.1528,225.5491 356.1528,233.3021" id="Fill-44"></path>
                                <path d="M404.5053,269.4007 C404.5053,270.9387 403.2583,272.1857 401.7203,272.1857 C400.1823,272.1857 398.9353,270.9387 398.9353,269.4007 C398.9353,267.8617 400.1823,266.6147 401.7203,266.6147 C403.2583,266.6147 404.5053,267.8617 404.5053,269.4007" id="Fill-46"></path>
                                <path d="M486.645,161.3021 C486.645,161.8641 486.19,162.3191 485.628,162.3191 C485.067,162.3191 484.612,161.8641 484.612,161.3021 C484.612,160.7401 485.067,160.2851 485.628,160.2851 C486.19,160.2851 486.645,160.7401 486.645,161.3021" id="Fill-50"></path>
                                <path d="M389.0541,137.7132 C389.0541,139.2002 387.8491,140.4042 386.3631,140.4042 C384.8761,140.4042 383.6711,139.2002 383.6711,137.7132 C383.6711,136.2272 384.8761,135.0232 386.3631,135.0232 C387.8491,135.0232 389.0541,136.2272 389.0541,137.7132" id="Fill-52"></path>
                                <path d="M504.6381,67.0531 C504.6381,67.4851 504.2881,67.8331 503.8581,67.8331 C503.4271,67.8331 503.0781,67.4851 503.0781,67.0531 C503.0781,66.6221 503.4271,66.2741 503.8581,66.2741 C504.2881,66.2741 504.6381,66.6221 504.6381,67.0531" id="Fill-54"></path>
                                <path d="M445.6274,54.0531 C445.6274,54.6551 445.1394,55.1431 444.5374,55.1431 C443.9364,55.1431 443.4474,54.6551 443.4474,54.0531 C443.4474,53.4511 443.9364,52.9631 444.5374,52.9631 C445.1394,52.9631 445.6274,53.4511 445.6274,54.0531" id="Fill-56"></path>
                                <path d="M351.3061,40.2708 C351.3061,40.7318 350.9331,41.1048 350.4721,41.1048 C350.0111,41.1048 349.6381,40.7318 349.6381,40.2708 C349.6381,39.8098 350.0111,39.4368 350.4721,39.4368 C350.9331,39.4368 351.3061,39.8098 351.3061,40.2708" id="Fill-58"></path>
                                <path d="M469.9536,28.8265 C469.9536,29.0235 469.7946,29.1835 469.5976,29.1835 C469.3996,29.1835 469.2396,29.0235 469.2396,28.8265 C469.2396,28.6295 469.3996,28.4705 469.5976,28.4705 C469.7946,28.4705 469.9536,28.6295 469.9536,28.8265" id="Fill-60"></path>
                                <path d="M525.1899,15.7337 C525.1899,16.2547 524.7679,16.6767 524.2469,16.6767 C523.7259,16.6767 523.3029,16.2547 523.3029,15.7337 C523.3029,15.2127 523.7259,14.7907 524.2469,14.7907 C524.7679,14.7907 525.1899,15.2127 525.1899,15.7337" id="Fill-62"></path>
                                <path d="M387.7377,2.0892 C387.7377,3.2432 386.8027,4.1782 385.6487,4.1782 C384.4957,4.1782 383.5597,3.2432 383.5597,2.0892 C383.5597,0.9362 384.4957,0.0002 385.6487,0.0002 C386.8027,0.0002 387.7377,0.9362 387.7377,2.0892" id="Fill-64"></path>
                                <path d="M172.9711,277.4935 C173.4761,277.9985 173.4761,278.8175 172.9711,279.3235 C172.4651,279.8285 171.6461,279.8285 171.1401,279.3235 C170.6351,278.8175 170.6351,277.9985 171.1401,277.4935 C171.6461,276.9875 172.4651,276.9875 172.9711,277.4935" id="Fill-66"></path>
                                <path d="M128.1323,246.8949 C128.1323,247.4719 127.6643,247.9399 127.0873,247.9399 C126.5103,247.9399 126.0423,247.4719 126.0423,246.8949 C126.0423,246.3179 126.5103,245.8499 127.0873,245.8499 C127.6643,245.8499 128.1323,246.3179 128.1323,246.8949" id="Fill-70"></path>
                                <path d="M161.8198,192.6576 C161.8198,193.8846 160.8258,194.8786 159.5988,194.8786 C158.3728,194.8786 157.3788,193.8846 157.3788,192.6576 C157.3788,191.4306 158.3728,190.4366 159.5988,190.4366 C160.8258,190.4366 161.8198,191.4306 161.8198,192.6576" id="Fill-72"></path>
                                <path d="M102.7856,189.1341 C102.7856,189.5991 102.4086,189.9761 101.9436,189.9761 C101.4786,189.9761 101.1016,189.5991 101.1016,189.1341 C101.1016,188.6691 101.4786,188.2911 101.9436,188.2911 C102.4086,188.2911 102.7856,188.6691 102.7856,189.1341" id="Fill-74"></path>
                                <path d="M55.8081,217.5931 C55.8081,218.3181 55.2201,218.9051 54.4961,218.9051 C53.7701,218.9051 53.1831,218.3181 53.1831,217.5931 C53.1831,216.8681 53.7701,216.2811 54.4961,216.2811 C55.2201,216.2811 55.8081,216.8681 55.8081,217.5931" id="Fill-76"></path>
                                <path d="M21.9936,165.8978 C21.9936,167.5148 20.6826,168.8258 19.0656,168.8258 C17.4486,168.8258 16.1386,167.5148 16.1386,165.8978 C16.1386,164.2808 17.4486,162.9698 19.0656,162.9698 C20.6826,162.9698 21.9936,164.2808 21.9936,165.8978" id="Fill-78"></path>
                                <path d="M102.9106,108.931 C102.9106,109.834 102.1786,110.568 101.2746,110.568 C100.3706,110.568 99.6386,109.834 99.6386,108.931 C99.6386,108.027 100.3706,107.294 101.2746,107.294 C102.1786,107.294 102.9106,108.027 102.9106,108.931" id="Fill-80"></path>
                                <path d="M165.7475,64.8109 C165.7475,67.9299 163.2195,70.4579 160.1005,70.4579 C156.9815,70.4579 154.4535,67.9299 154.4535,64.8109 C154.4535,61.6929 156.9815,59.1649 160.1005,59.1649 C163.2195,59.1649 165.7475,61.6929 165.7475,64.8109" id="Fill-82"></path>
                                <path d="M122.185,33.5394 C122.185,34.3394 121.537,34.9874 120.737,34.9874 C119.937,34.9874 119.289,34.3394 119.289,33.5394 C119.289,32.7394 119.937,32.0914 120.737,32.0914 C121.537,32.0914 122.185,32.7394 122.185,33.5394" id="Fill-84"></path>
                                <path d="M41.4106,70.4583 C41.4106,71.2583 40.7626,71.9063 39.9626,71.9063 C39.1626,71.9063 38.5146,71.2583 38.5146,70.4583 C38.5146,69.6583 39.1626,69.0103 39.9626,69.0103 C40.7626,69.0103 41.4106,69.6583 41.4106,70.4583" id="Fill-86"></path>
                                <path d="M5.7241,34.138 C5.7241,35.718 4.4431,37 2.8621,37 C1.2821,37 0.0001,35.718 0.0001,34.138 C0.0001,32.557 1.2821,31.276 2.8621,31.276 C4.4431,31.276 5.7241,32.557 5.7241,34.138" id="Fill-88"></path>
                            </g>
                            <g id="Group" opacity="0.363560268" transform="translate(384.000000, 377.500000) rotate(-24.000000) translate(-384.000000, -377.500000) translate(89.000000, 96.000000)">
                                <path d="M265.815074,241.2306 C240.040824,241.2306 188.724509,302.928402 185.062084,331.742238 C184.201134,338.510092 186.260295,342.445673 191.181943,343.43966 C201.421818,345.959105 210.492293,347.2306 218.18491,347.2306 C251.270452,347.2306 258.397012,323.84753 266.650602,296.771068 C270.407934,284.441262 274.29407,271.690989 280.871521,259.631965 C279.061493,247.421572 273.997483,241.2306 265.815074,241.2306 M217.726707,349.2306 C209.806241,349.2306 200.878635,347.976141 190.431042,345.393235 C186.42779,344.581032 181.86108,341.602954 183.068973,332.066715 C184.750912,318.783917 197.605854,296.129674 215.056186,275.691754 C234.018069,253.486493 252.738712,240.2306 265.138164,240.2306 C274.323881,240.2306 279.943279,246.938422 281.839468,260.169091 L281.871521,260.392741 L281.761866,260.594531 C275.219678,272.582513 271.3497,285.333932 267.606246,297.664957 C259.210045,325.33367 251.959318,349.2306 217.726707,349.2306" id="Fill-1" fill="url(#linearGradient-1)"></path>
                                <path d="M266.5805,230.2306 C261.189915,230.2306 254.525804,232.487704 246.775153,236.941228 C236.084949,243.083787 225.163961,254.800836 214.603467,266.133554 L209.901866,271.161889 C199.659755,282.076562 190.812457,291.502795 184.49368,303.916023 C177.514557,317.63227 175.1427,329.669595 178.149635,336.120631 C179.264813,338.510902 181.10435,340.145996 183.61771,340.978714 L184.023689,341.111881 L184.139923,341.484413 C184.793532,343.574636 189.100946,344.709088 193.265173,345.806455 C195.345602,346.355981 197.496782,346.922364 199.209978,347.625286 C201.96423,348.754681 204.351248,349.84362 206.455261,350.804448 C210.323006,352.565967 213.661799,354.091493 217.777174,355.21583 C220.245052,355.890096 222.760096,356.2306 225.254927,356.2306 C230.318708,356.2306 235.406072,354.917468 241.750117,351.967556 C244.084914,350.881989 246.006995,349.444117 248.040256,347.921963 C249.36095,346.932478 250.727126,345.910966 252.228067,344.983851 C253.296077,344.324756 254.257959,343.766802 255.16762,343.239189 C257.308694,341.996855 259.160023,340.923087 261.563887,338.976145 C268.169038,333.622477 270.230937,325.816168 272.410755,317.551358 L272.646593,316.664699 C273.028987,315.218399 273.199128,313.800756 273.364214,312.42694 C273.630375,310.205235 273.906642,307.909361 275.060564,305.364008 C276.115097,303.042849 277.568871,301.289759 278.975477,299.592295 C280.250687,298.053284 281.455146,296.598556 282.420397,294.724098 C287.034401,285.756367 286.016928,277.744406 285.036516,269.997095 C284.288572,264.082101 283.581058,258.494125 285.17128,252.555532 C282.46925,237.532896 276.384627,230.2306 266.5805,230.2306 M224.782967,358.2306 C222.131108,358.2306 219.459109,357.868255 216.839141,357.14862 C212.596167,355.984059 209.207495,354.435243 205.285095,352.638684 C203.099829,351.6376 200.839036,350.604494 198.128434,349.487122 C196.532284,348.829845 194.447722,348.278743 192.431974,347.746179 C188.044659,346.584989 183.513003,345.388407 182.333094,342.75424 C179.565426,341.734617 177.534573,339.867275 176.292563,337.192661 C173.07173,330.262595 175.384554,318.084421 182.635204,303.786105 C189.026518,291.188284 197.908565,281.68978 208.193747,270.694705 L212.873102,265.67243 C223.477178,254.252653 234.443787,242.446936 245.311371,236.180889 C253.310584,231.568149 260.257445,229.2306 265.957262,229.2306 C276.579801,229.2306 283.382321,237.219051 286.175164,252.97349 L286.202018,253.125169 L286.160058,253.273478 C284.594119,259.00359 285.288973,264.506184 286.024109,270.330674 C287.027787,278.283734 288.063354,286.506445 283.271547,295.854955 C282.237658,297.872292 280.928513,299.458184 279.663005,300.990147 C278.261549,302.685586 276.940655,304.286647 275.970545,306.428698 C274.908123,308.779729 274.658043,310.869535 274.392857,313.08237 C274.225018,314.501415 274.048787,315.969335 273.642616,317.508039 L273.409319,318.39115 C271.173702,326.891941 269.063964,334.917469 262.093605,340.585224 C259.596159,342.614358 257.699577,343.718247 255.502563,344.997411 C254.609658,345.518177 253.668081,346.065908 252.619086,346.714759 C251.18574,347.604612 249.856454,348.604011 248.569128,349.569704 C246.561772,351.076386 244.488959,352.635314 241.998226,353.796504 C235.422289,356.862114 230.113537,358.2306 224.782967,358.2306" id="Fill-3" fill="url(#linearGradient-2)"></path>
                                <path d="M266.968415,219.2306 C261.573344,219.2306 255.22402,221.056478 247.561333,224.812284 C237.652947,229.668986 227.545618,240.058705 217.768738,250.107749 C214.118635,253.861876 210.669161,257.406228 207.2062,260.70892 C204.658715,263.133915 202.195528,265.387734 199.825068,267.560999 C190.216784,276.351396 181.916804,283.945238 175.63829,296.372288 C165.461837,316.51401 165.266265,333.683645 175.166221,338.129189 L175.886126,338.451403 L175.557364,339.107578 C175.144303,339.928216 175.090353,340.629703 175.392139,341.248957 C176.270524,343.058054 180.102711,344.249574 183.806765,345.404174 C186.640863,346.283549 189.572747,347.196488 191.634676,348.483665 C195.74336,351.046272 198.50159,353.553499 201.167092,355.976815 C203.980959,358.536066 206.638032,360.954348 210.542714,363.006783 C214.668258,365.175014 218.857868,366.2306 223.357694,366.2306 C229.430521,366.2306 235.341496,364.30403 240.824237,362.223065 C243.533575,361.197687 245.703405,359.722552 248.001368,358.161828 C250.097016,356.738717 252.266846,355.26526 254.910431,354.124086 C257.193221,353.138984 259.049462,352.682515 260.841637,352.23947 C263.124427,351.677274 265.279084,351.145286 268.157017,349.542608 C278.100807,344.007914 280.112157,334.658677 282.241525,324.760671 C282.43541,323.856122 282.629295,322.946539 282.833296,322.035278 C283.246357,320.177514 283.239613,318.415407 283.236241,316.710359 C283.229497,313.896022 283.221067,310.987707 285.038532,307.602783 C286.614904,304.669294 289.025827,302.925648 291.359195,301.240738 C293.429553,299.745464 295.383581,298.332422 296.801473,296.125593 C304.573747,284.044252 299.660861,274.295604 294.90814,264.862458 C291.672783,258.439998 288.616138,252.373315 289.239943,245.655492 C285.409443,227.62662 278.328412,219.2306 266.968415,219.2306 M222.830994,368.2306 C218.031656,368.2306 213.568641,367.106288 209.188025,364.797253 C205.101693,362.642602 202.37579,360.159047 199.48677,357.526143 C196.881943,355.151663 194.187991,352.694958 190.216009,350.211403 C188.352776,349.045139 185.54111,348.167504 182.823615,347.320075 C178.597709,346.001106 174.605547,344.757651 173.436822,342.341219 C173.034916,341.512249 172.999602,340.607765 173.330881,339.644548 C163.278167,334.380419 163.374019,316.725364 173.692428,296.254496 C180.077533,283.586688 188.448628,275.906127 198.143157,267.012316 C200.502467,264.849274 202.952585,262.602328 205.483421,260.184218 C208.917285,256.901898 212.346104,253.367867 215.9784,249.625754 C225.825956,239.480097 236.008154,228.985399 246.15672,223.998153 C254.056962,220.116759 260.655632,218.2306 266.329412,218.2306 C278.638857,218.2306 286.233045,227.04722 290.225207,245.982647 L290.247068,246.083332 L290.236978,246.185695 C289.611416,252.555677 292.58788,258.479291 295.740914,264.750267 C300.652921,274.523391 305.73309,284.630452 297.55538,297.373774 C295.984749,299.823767 293.818825,301.391091 291.723528,302.906395 C289.443254,304.56098 287.28742,306.121592 285.878224,308.752818 C284.231919,311.8237 284.238646,314.438145 284.245372,317.203617 C284.250417,318.982379 284.255462,320.821552 283.811515,322.825176 C283.609721,323.734695 283.416335,324.640856 283.222948,325.541984 C281.026755,335.768189 278.955001,345.428882 268.412937,351.315578 C265.333894,353.035607 262.964494,353.619578 260.670767,354.186769 C258.953835,354.609644 257.181409,355.0493 255.042391,355.975599 C252.558641,357.047891 250.461663,358.475935 248.436994,359.853637 C246.165128,361.402502 243.812544,363.00171 240.916798,364.104207 C235.283377,366.247112 229.192556,368.2306 222.830994,368.2306" id="Fill-5" fill="url(#linearGradient-3)"></path>
                                <path d="M268.107511,207.2306 C262.764595,207.2306 256.547752,208.791379 249.1,212.000677 C238.887336,216.404603 228.497866,227.012835 218.448538,237.271791 C213.499647,242.323651 208.826912,247.093728 204.142389,251.209121 C200.340213,254.550031 196.760308,257.410052 193.29659,260.177271 C183.186642,268.252823 174.455783,275.229925 167.676527,288.868599 C157.302212,309.74591 157.265167,329.894296 167.594018,335.735826 L168.373649,336.177906 L167.812921,336.835964 C166.553387,338.310689 166.098742,339.523877 166.420361,340.544711 C167.09896,342.687618 171.322103,344.147157 175.407169,345.556076 C178.916351,346.76589 182.545088,348.017887 184.868827,349.894196 C189.485995,353.616442 192.109463,357.412931 194.645369,361.082869 C197.233475,364.828738 199.676769,368.367065 204.044724,371.497059 C209.428053,375.355978 215.092587,377.2306 221.361631,377.2306 C227.310739,377.2306 233.369298,375.619202 240.636876,373.197886 C243.849698,372.129807 246.373817,370.493099 249.046116,368.758525 C251.784087,366.986831 254.612987,365.151018 258.282136,363.920955 C261.405713,362.874812 263.875948,362.751637 266.265358,362.631837 C269.075735,362.491788 271.731196,362.35849 275.405398,360.740342 C288.782051,354.841443 290.80101,343.642646 292.934471,331.785791 C293.180316,330.429179 293.426161,329.06413 293.688844,327.699082 C294.138437,325.387442 293.959947,323.244535 293.784825,321.169122 C293.498567,317.760719 293.20389,314.232516 295.669074,310.022632 C297.75202,306.464057 301.113022,304.731171 304.362888,303.055654 C307.233885,301.577554 309.946597,300.180447 311.81064,297.598835 C322.750735,282.466876 313.811076,271.047039 305.162726,260.005163 C299.506611,252.785086 294.167063,245.964905 293.961631,238.203196 C288.743322,216.536215 281.004261,207.2306 268.107511,207.2306 M220.911359,379.2306 C214.262707,379.2306 208.272038,377.2483 202.595255,373.167291 C198.01455,369.874142 195.503471,366.226709 192.844682,362.368393 C190.377245,358.786756 187.82756,355.085337 183.404637,351.508761 C181.318226,349.821697 177.850386,348.620507 174.496686,347.459807 C169.832055,345.845286 165.425917,344.32018 164.522869,341.448797 C164.101558,340.114329 164.477548,338.673576 165.672661,337.060743 C153.860855,329.418342 156.731139,307.169339 165.853942,288.753346 C172.759408,274.819883 181.588469,267.744335 191.810708,259.553639 C195.248335,256.798663 198.80178,253.950898 202.563363,250.637504 C207.187709,246.55987 211.827162,241.810784 216.736858,236.781646 C226.866778,226.409575 237.339118,215.684908 247.826565,211.151766 C255.485691,207.840059 261.924527,206.2306 267.508992,206.2306 C284.876727,206.2306 291.125889,222.559695 294.951256,238.534506 C295.161072,245.977833 300.344369,252.616431 305.828122,259.643053 C314.767965,271.093158 324.013301,282.932975 312.49188,298.919595 C310.412183,301.807849 307.40426,303.361635 304.493691,304.864809 C301.322951,306.504636 298.326777,308.053361 296.480396,311.21998 C294.246274,315.047929 294.509803,318.209487 294.788439,321.553249 C294.968041,323.717752 295.156037,325.956486 294.675978,328.451654 C294.41077,329.811428 294.167383,331.169515 293.923997,332.52254 C291.725124,344.774 289.645427,356.345574 275.527323,362.586024 C271.56096,364.340571 268.615142,364.489033 265.766679,364.632433 C263.408346,364.750528 261.17926,364.861874 258.308976,365.826875 C254.862957,366.987575 252.135348,368.758992 249.500058,370.47305 C246.859733,372.190481 244.130445,373.963586 240.712961,375.105728 C233.2989,377.582338 227.095058,379.2306 220.911359,379.2306" id="Fill-7" fill="url(#linearGradient-4)"></path>
                                <path d="M269.298591,195.2306 C263.995849,195.2306 257.894754,196.577 250.644031,199.343852 C239.850304,203.463836 228.880099,214.568269 218.272934,225.307492 C212.336552,231.314119 206.732956,236.989195 201.124319,241.55854 C196.295546,245.496759 191.819729,248.635554 187.493499,251.670003 C176.160253,259.620495 167.2103,265.896402 159.799907,280.922225 C149.118789,302.572337 149.244845,325.245712 160.087314,332.539834 L160.841967,333.046417 L160.194881,333.660712 C157.959494,335.781292 157.001471,337.573687 157.342661,338.985724 C157.941006,341.468148 162.405057,343.105707 167.131305,344.842563 C171.287781,346.367361 175.583758,347.944332 178.141848,350.384682 C183.143737,355.15767 185.570729,360.149448 187.915365,364.979658 C190.338995,369.964704 192.624805,374.673737 197.561145,378.91658 C204.164782,384.589973 211.015488,387.2306 219.120028,387.2306 C226.160657,387.2306 233.515586,385.199219 240.446968,383.119031 C244.198385,381.989738 247.106069,380.175464 250.183508,378.250112 C253.51642,376.166558 256.966984,374.012318 261.62096,372.73997 C263.595832,372.198044 265.501794,371.94896 267.616168,371.94896 C268.959081,371.94896 270.241487,372.04994 271.478514,372.145871 C272.734028,372.245168 273.920632,372.337733 275.184551,372.337733 C277.789701,372.337733 280.075511,371.922032 282.594944,370.989651 C299.434302,364.755819 301.474723,351.719301 303.636157,337.922068 C303.910119,336.168382 304.18576,334.404598 304.493336,332.642497 C304.97739,329.887426 304.622753,327.371341 304.278201,324.93604 C303.718514,320.96416 303.140338,316.85764 306.239627,311.864179 C308.814525,307.722316 313.115544,306.020804 317.273701,304.376513 C320.947804,302.920718 324.421898,301.549073 326.7346,298.598774 C340.86292,280.572161 327.853974,267.608013 315.271937,255.071346 C307.253115,247.083828 299.681371,239.537257 298.642672,230.797438 C292.605445,208.30751 285.860626,195.2306 269.298591,195.2306 M218.592792,389.2306 C210.043351,389.2306 202.835526,386.455608 195.912794,380.495012 C190.744223,376.045601 188.287391,370.975224 185.911056,366.07313 C183.626956,361.362879 181.267391,356.49276 176.474473,351.912087 C174.173603,349.710941 170.0582,348.198074 166.078635,346.734009 C160.941928,344.844187 156.088636,343.058701 155.302114,339.799052 C154.867767,338.001786 155.738139,336.010995 157.956835,333.725707 C147.250749,325.540405 147.135034,302.600021 157.859568,280.81406 C165.422921,265.444743 174.956771,258.745383 185.994907,250.985838 C190.289751,247.968518 194.728819,244.848545 199.501613,240.947737 C205.030743,236.432695 210.591736,230.790155 216.483102,224.814414 C227.190865,213.950041 238.265895,202.717129 249.386205,198.462926 C256.83049,195.615572 263.137756,194.2306 268.660178,194.2306 C286.221916,194.2306 293.515269,208.317598 299.597815,231.045946 C300.595641,239.396165 307.972845,246.765292 315.786074,254.566908 C328.779613,267.541553 342.215885,280.958784 327.34744,299.964704 C324.773216,303.259691 320.92949,304.780973 317.21154,306.255135 C313.136385,307.870655 309.290982,309.395302 306.995143,313.095853 C304.169367,317.654648 304.685889,321.341736 305.237628,325.244227 C305.591479,327.781939 305.960423,330.403794 305.445578,333.372312 C305.137007,335.125824 304.863653,336.881019 304.591976,338.6278 C302.366572,352.864571 300.265268,366.310409 282.572723,372.876825 C279.879432,373.874745 277.32701,374.34089 274.533097,374.34089 C273.196513,374.34089 271.920302,374.238237 270.687693,374.142316 C269.486948,374.048077 268.247632,373.950473 266.981483,373.950473 C265.042849,373.950473 263.300427,374.179338 261.494278,374.675774 C257.102167,375.877317 253.773285,377.964031 250.55341,379.978382 C247.52136,381.878301 244.383659,383.84385 240.409125,385.040345 C233.362293,387.160715 225.871052,389.2306 218.592792,389.2306" id="Fill-9" fill="url(#linearGradient-5)"></path>
                                <path d="M270.153309,184.2306 C264.847642,184.2306 258.811729,185.40529 251.703215,187.821795 C240.150825,191.746938 228.414608,203.488804 217.064596,214.841345 C210.237723,221.673006 203.786936,228.122055 197.351327,233.015478 C191.551522,237.423922 186.245855,240.713054 181.113895,243.894786 C168.799216,251.525237 159.073284,257.551397 150.93433,274.062505 C139.933419,296.373225 140.226867,321.640808 151.586998,330.385537 L152.293633,330.92925 L151.613982,331.501492 C148.298361,334.288864 146.802453,336.624819 147.16842,338.442232 C147.736763,341.271557 152.684897,343.156096 157.923104,345.154747 C162.739692,346.988942 167.718182,348.888583 170.510993,351.885721 C175.899298,357.668552 178.133884,363.815538 180.292579,369.761147 C182.562582,376.012177 184.709471,381.917511 190.274856,387.292557 C198.000622,394.756874 206.205349,398.2306 216.096556,398.2306 C223.69415,398.2306 231.600369,396.226914 239.703907,393.993325 C244.033102,392.798498 247.350409,390.793134 250.863347,388.666945 C254.797906,386.28568 258.869069,383.823866 264.515406,382.526672 C266.237302,382.132312 267.917036,381.939327 269.654111,381.939327 C272.018556,381.939327 274.160386,382.298447 276.231384,382.647497 C278.332739,382.999904 280.314353,383.333852 282.550626,383.333852 C284.83918,383.333852 287.099063,382.964664 289.455076,382.204471 C309.87498,375.627885 311.957783,360.736172 314.165386,344.970153 C314.46052,342.84732 314.760713,340.711062 315.104755,338.583195 C315.624191,335.377969 315.091263,332.493266 314.5752,329.70086 C313.738706,325.173269 312.873542,320.492968 316.627647,314.735309 C319.700414,310.016411 324.95886,308.351708 330.043598,306.739026 C334.549873,305.30926 338.804863,303.961723 341.582496,300.633994 C359.008897,279.758073 341.821976,265.272467 325.203399,251.263449 C314.79107,242.488514 304.957203,234.200237 303.091956,224.475481 C295.904177,200.191282 289.719854,184.2306 270.153309,184.2306 M215.572468,400.2306 C205.196064,400.2306 196.613569,396.601012 188.56117,388.806545 C182.755365,383.188487 180.456602,376.847196 178.235251,370.717338 C176.128333,364.907984 173.950735,358.898945 168.782727,353.341296 C166.255098,350.624559 161.47751,348.798858 156.858108,347.035244 C151.19871,344.872259 145.854004,342.831769 145.128699,339.20386 C144.67938,336.962006 146.081187,334.426497 149.414897,331.466445 C138.223998,321.863056 137.966523,296.383788 149.000918,273.958542 C157.312475,257.062418 167.685514,250.620445 179.697641,243.159906 C184.783189,240.001846 190.042071,236.734714 195.7671,232.375182 C202.101317,227.549156 208.499483,221.134032 215.272922,214.344706 C226.733077,202.856886 238.583651,190.978083 250.49649,186.920597 C257.784879,184.437106 264.006346,183.2306 269.512605,183.2306 C290.201466,183.2306 296.872252,200.401922 304.034428,224.661259 C305.813192,233.95589 315.427269,242.075896 325.608463,250.672464 C342.726333,265.132083 360.428149,280.083366 342.145752,302.030373 C339.069517,305.725404 334.379436,307.21382 329.844177,308.656929 C324.836039,310.246027 320.105569,311.746189 317.350757,315.986581 C313.909345,321.279101 314.686818,325.492644 315.509728,329.952858 C316.043189,332.857535 316.596844,335.862894 316.041506,339.292796 C315.698206,341.412152 315.403709,343.538222 315.107529,345.652544 C312.84074,361.885845 310.698482,377.221398 289.351631,384.113083 C286.808856,384.93532 284.367052,385.333014 281.883177,385.333014 C279.493542,385.333014 277.342869,384.970559 275.264559,384.61985 C273.182884,384.270819 271.217324,383.940246 269.014484,383.940246 C267.427564,383.940246 265.889446,384.11644 264.309258,384.478895 C258.959503,385.71225 255.025018,388.096736 251.216746,390.404033 C247.763554,392.498219 244.192563,394.664561 239.630378,395.923087 C231.413061,398.193467 223.390952,400.2306 215.572468,400.2306" id="Fill-11" fill="url(#linearGradient-6)"></path>
                                <path d="M271.402441,172.2306 C266.184568,172.2306 260.064217,173.302664 253.20976,175.416545 C240.894974,179.210776 228.383191,191.707543 216.287289,203.789263 C208.660001,211.406292 201.457013,218.601553 194.289383,223.773672 C187.588146,228.608041 181.518307,231.995627 175.650515,235.273991 C162.357482,242.694419 151.859438,248.555482 143.003029,266.678062 C131.774247,289.658536 132.235589,317.708628 144.009898,327.9302 L144.664869,328.498159 L143.977908,329.035871 C139.497507,332.551164 137.510708,335.36071 137.897966,337.620782 C138.450229,340.816808 143.876884,342.960936 149.621764,345.231089 C155.068624,347.381938 160.700694,349.608402 163.707832,353.169065 C169.449344,359.964403 171.481604,367.273928 173.446515,374.343162 C175.549491,381.903059 177.53629,389.044549 183.713888,395.592875 C192.494529,404.896976 202.000857,409.2306 213.63205,409.2306 C221.789712,409.2306 230.503005,407.146965 239.458754,404.82136 C244.353351,403.552696 248.072706,401.341354 252.007578,398.998946 C256.518285,396.315426 261.178844,393.542847 267.782426,392.223772 C269.371865,391.906186 270.909108,391.753274 272.485078,391.753274 C275.711101,391.753274 278.53808,392.417013 281.27077,393.058906 C284.062391,393.715924 286.695742,394.334293 289.78875,394.334293 C292.018006,394.334293 294.235476,394.001583 296.570807,393.324402 C320.488162,386.377833 322.607976,369.549122 324.852385,351.730685 C325.167242,349.242086 325.4821,346.741724 325.860938,344.248084 C326.413201,340.581559 325.702668,337.308236 325.015707,334.142456 C323.907814,329.047633 322.762879,323.779734 327.143939,317.23813 C330.698289,311.934943 336.885989,310.296602 342.868275,308.712031 C348.188855,307.303897 353.214783,305.97306 356.444173,302.251083 C377.103516,278.448918 355.800989,262.388128 335.198894,246.854967 C322.446338,237.243362 310.404316,228.164428 307.73729,217.406824 L306.631081,213.930179 C299.251301,190.632119 293.422235,172.2306 271.402441,172.2306 M213.108684,411.2306 C200.965076,411.2306 191.066365,406.727534 181.955719,397.054342 C175.538611,390.240934 173.416379,382.594122 171.366399,375.201028 C169.444124,368.280083 167.457996,361.120544 161.936494,354.572615 C159.197587,351.324694 153.781945,349.179016 148.542736,347.105589 C142.375995,344.664188 136.550357,342.357207 135.859749,338.346453 C135.397663,335.666457 137.348504,332.5832 141.818131,328.9337 C130.225666,317.884385 129.81567,289.662928 141.073754,266.577991 C150.120548,248.028046 161.328222,241.757358 174.308624,234.498684 C180.1225,231.245722 186.134652,227.881864 192.741635,223.104917 C199.788859,218.010403 206.933541,210.860945 214.498301,203.291425 C226.714161,191.064255 239.348419,178.422064 252.054931,174.497003 C259.172728,172.297558 265.29074,171.2306 270.761832,171.2306 C294.015655,171.2306 300.284895,191.062575 307.545519,214.026534 L308.659565,217.543294 C311.211957,227.844899 323.021183,236.763659 335.519336,246.208337 C356.687893,262.195903 378.575623,278.73123 356.968505,303.672841 C353.411286,307.779369 347.896506,309.241186 342.563199,310.655955 C336.643464,312.226987 331.051389,313.710647 327.843675,318.509437 C323.797486,324.556652 324.832558,329.316797 325.92308,334.354182 C326.637212,337.639068 327.371508,341.033171 326.781719,344.94479 C326.40869,347.426517 326.096152,349.918326 325.783614,352.395012 C323.479908,370.708043 321.305585,388.004523 296.405057,395.253115 C293.901394,395.980663 291.515353,396.335195 289.110828,396.335195 C285.805656,396.335195 282.945767,395.661416 280.178295,395.01116 C277.436027,394.365944 274.841627,393.754334 271.842272,393.754334 C270.395524,393.754334 268.980703,393.897155 267.518832,394.191198 C261.234469,395.448024 256.716113,398.141463 252.347305,400.744168 C248.482589,403.047789 244.48849,405.427021 239.35514,406.762819 C230.296584,409.118527 221.473271,411.2306 213.108684,411.2306" id="Fill-13" fill="url(#linearGradient-7)"></path>
                                <path d="M272.211349,160.2306 C266.986136,160.2306 260.920432,161.187496 254.181324,163.077745 C241.015339,166.770793 227.641763,180.054667 214.710372,192.902976 C206.291973,201.266149 198.339387,209.168532 190.450934,214.580293 C182.842645,219.800339 175.703546,223.405938 169.404936,226.586063 C155.045725,233.839304 143.704176,239.565546 134.082425,259.329071 C122.612608,282.888229 123.245507,313.803211 135.441048,325.491137 L136.046943,326.07301 L135.363412,326.58257 C129.721329,330.785178 127.176232,334.128429 127.58635,336.802358 C128.133175,340.37264 134.072298,342.775812 140.36247,345.320248 C146.458552,347.787326 152.763913,350.336807 155.994229,354.455329 C162.110564,362.253445 163.951878,370.714158 165.735809,378.894024 C167.671636,387.771802 169.499448,396.156837 176.321255,403.886003 C186.29743,415.188816 196.811991,420.2306 210.415098,420.2306 C219.154166,420.2306 228.357361,418.158726 238.615386,415.656333 C244.083633,414.30087 248.216885,411.887608 252.59317,409.331399 C257.695179,406.351399 262.969337,403.270495 270.562436,401.93185 C272.071267,401.664457 273.527779,401.536646 275.014669,401.536646 C279.051721,401.536646 282.513256,402.523814 285.861713,403.482392 C289.149412,404.419107 292.553564,405.392821 296.484289,405.391139 C298.722219,405.391139 300.958462,405.086749 303.321285,404.459469 C330.838042,397.142323 333.006776,378.367647 335.303777,358.491447 C335.627821,355.686345 335.961992,352.783703 336.370423,349.933195 C336.961128,345.804583 336.068319,342.145169 335.205889,338.606839 C333.823637,332.947865 332.39413,327.095494 337.423566,319.774984 C341.469056,313.887297 348.609844,312.277895 355.512662,310.722308 C361.67119,309.333211 367.488797,308.023154 371.18999,303.90295 C378.590688,295.660861 381.6978,287.975419 380.685161,280.402652 C378.740896,265.83563 361.574989,253.979533 344.974473,242.515276 C329.838906,232.058366 315.538766,222.183331 312.060353,210.392821 C311.062904,207.481771 310.109337,204.555585 309.174334,201.683214 C301.932283,179.44084 295.677553,160.2306 272.211349,160.2306 M210.05276,422.2306 C196.0972,422.2306 184.860322,416.854536 174.69306,405.308695 C167.631901,397.294207 165.683007,388.336342 163.798123,379.674439 C162.053046,371.648179 160.245645,363.347819 154.346747,355.814267 C151.39056,352.03572 145.311428,349.572181 139.434427,347.189359 C132.721946,344.468536 126.378357,341.897375 125.707951,337.500001 C125.224518,334.347007 127.672004,330.817336 133.394037,326.426688 C121.170078,313.765949 120.612529,283.312237 132.314313,259.230095 C142.143002,239.003853 154.259156,232.874434 168.285462,225.778097 C174.8295,222.467034 181.592514,219.044985 189.091627,213.88921 C196.843406,208.561913 204.729939,200.712221 213.079693,192.401771 C226.137448,179.404712 239.639894,165.962031 253.224877,162.146488 C260.114224,160.210971 266.341587,159.2306 271.728417,159.2306 C296.420577,159.2306 302.828175,178.942273 310.246435,201.768263 C311.177929,204.635385 312.124582,207.552955 313.128507,210.487341 C316.463692,221.807848 330.51358,231.53252 345.388842,241.825572 C362.231527,253.480717 379.648604,265.531037 381.673297,280.725942 C382.737861,288.716888 379.522271,296.771735 371.83787,305.342832 C367.7868,309.8596 361.431419,311.295684 355.283224,312.683001 C348.419144,314.231751 341.935747,315.696421 338.258621,321.059032 C333.594415,327.862772 334.886378,333.166527 336.255825,338.783059 C337.146892,342.445576 338.069964,346.230849 337.443353,350.619816 C337.037404,353.451624 336.70557,356.342289 336.383843,359.138784 C334.030684,379.531503 331.808912,398.790827 303.26276,406.396688 C300.746211,407.064282 298.355995,407.392193 295.953988,407.392193 C291.766478,407.393875 288.240952,406.383235 284.831651,405.409591 C281.467831,404.447718 278.290983,403.537974 274.526266,403.537974 C273.15345,403.537974 271.80927,403.657367 270.414556,403.902881 C263.159686,405.184257 258.033945,408.182543 253.080016,411.083297 C248.794808,413.588876 244.363055,416.180216 238.64776,417.601165 C228.286789,420.133649 218.985329,422.2306 210.05276,422.2306" id="Fill-15" fill="url(#linearGradient-8)"></path>
                                <path d="M273.556555,148.2306 C268.348141,148.2306 262.356443,149.095287 255.746541,150.796063 C241.761984,154.399487 227.560128,168.495234 213.828242,182.124991 C204.67309,191.210936 196.03002,199.790517 187.474543,205.424442 C179.010028,210.999487 171.119921,214.643285 164.161332,217.858105 C148.776971,224.962334 136.625128,230.57439 126.265572,251.998108 C114.425358,276.485241 115.218749,309.683172 127.963529,323.035356 L128.526145,323.625833 L127.850669,324.112009 C121.057159,329.00237 117.961083,332.881686 118.387257,335.965289 C118.931344,339.911896 125.367744,342.574931 132.181468,345.392734 C138.900861,348.171845 145.849344,351.046846 149.285684,355.720194 C155.745667,364.505012 157.38972,374.100685 158.981554,383.38009 C160.655928,393.140625 162.384205,403.232568 169.84477,412.140191 C180.815792,425.342652 192.563359,431.2306 207.935929,431.2306 C217.274689,431.2306 227.268713,429.063835 238.425028,426.452951 C244.46389,425.017974 249.00525,422.393632 253.811073,419.616203 C259.475981,416.344186 265.331236,412.959457 273.86313,411.606911 C275.289885,411.379805 276.726747,411.265411 278.129919,411.265411 C282.930689,411.265411 286.978496,412.589358 290.893229,413.867883 C294.767534,415.134633 298.773229,416.445122 303.515042,416.445122 C305.782353,416.445122 308.051348,416.155772 310.446679,415.56193 C341.456282,407.882364 343.666321,387.161835 346.007749,365.225024 C346.342961,362.070766 346.689964,358.810526 347.126244,355.6058 C347.751186,351.013201 346.679857,346.970704 345.642217,343.059424 C343.99311,336.838387 342.288416,330.403702 347.939848,322.310297 C352.455941,315.84533 360.51618,314.265678 368.311956,312.738176 C375.285706,311.373855 381.870341,310.081871 386.027639,305.561609 C394.364133,296.499216 397.835847,288.074404 396.643235,279.807726 C394.315283,263.693254 374.303654,250.739769 354.947287,238.210217 C337.487646,226.912086 320.996581,216.236396 316.728107,203.41581 C315.173332,199.131067 313.761737,194.785761 312.400677,190.581767 C305.026021,167.855971 298.657,148.2306 273.556555,148.2306 M207.473757,433.2306 C191.531013,433.2306 179.378793,427.156302 168.071155,413.534131 C160.368972,404.324278 158.609146,394.044568 156.906523,384.101291 C155.345225,374.982275 153.730088,365.552058 147.479846,357.043668 C144.310141,352.7306 137.595547,349.948296 131.097987,347.258515 C123.855109,344.257532 117.01265,341.424767 116.354819,336.645736 C115.860183,333.064407 118.853233,329.008707 125.761307,323.918476 C113.195208,309.820252 112.471761,276.494882 124.349745,251.901631 C134.935619,229.984704 147.308238,224.263661 162.975062,217.020259 C169.867994,213.832556 177.684582,210.219266 186.034501,204.71354 C194.438259,199.172489 203.016989,190.648959 212.098767,181.624144 C225.975482,167.83712 240.323279,153.577408 254.756879,149.854777 C261.508486,148.113737 267.651053,147.2306 273.014652,147.2306 C299.354837,147.2306 306.195613,168.329995 313.433444,190.669145 C314.794533,194.8611 316.197683,199.194357 317.750569,203.473785 C321.854026,215.819193 338.10129,226.347863 355.300812,237.493888 C374.921356,250.207691 395.211509,263.355492 397.627484,280.114901 C398.884262,288.815058 395.29563,297.616145 386.656332,307.021129 C382.132268,311.943144 374.958369,313.349434 368.01833,314.711987 C360.233708,316.237711 352.879789,317.682691 348.746049,323.607276 C343.471619,331.165243 345.02114,337.017494 346.659831,343.209544 C347.728177,347.248422 348.833536,351.423555 348.174022,356.286694 C347.743319,359.465985 347.395055,362.71761 347.06025,365.863259 C344.666147,388.330254 342.406638,409.552446 310.314211,417.507404 C307.768689,418.138216 305.357761,418.446052 302.936739,418.446052 C297.901214,418.446052 293.755697,417.088545 289.746457,415.779821 C285.804514,414.486236 282.077923,413.268349 277.58246,413.268349 C276.260067,413.268349 274.964593,413.370961 273.616963,413.584596 C265.431922,414.886591 259.728471,418.183635 254.213453,421.374702 C249.512733,424.09308 244.653863,426.90566 238.358196,428.404469 C227.097666,431.043786 217.003062,433.2306 207.473757,433.2306" id="Fill-17" fill="url(#linearGradient-9)"></path>
                                <path d="M274.805339,135.2306 C269.6075,135.2306 263.68082,136.014655 257.185204,137.557526 C242.350829,141.084089 227.289215,156.00468 212.722474,170.432294 C202.843551,180.219515 193.509997,189.463283 184.302685,195.301629 C174.977547,201.212323 166.342536,204.876853 158.725885,208.108975 C142.2857,215.08807 129.301203,220.598324 118.190149,243.694283 C105.976575,269.080152 106.927604,304.549366 120.2235,319.597829 L120.748671,320.193442 L120.080425,320.6595 C112.122076,326.235373 108.466083,330.645259 108.907092,334.141536 C109.455827,338.463932 116.400867,341.38647 123.75325,344.480625 C131.097217,347.571415 138.691987,350.768204 142.33788,355.99243 C149.15836,365.766191 150.616044,376.497307 152.026598,386.873411 C153.522996,397.898968 155.071575,409.301409 163.156167,419.399897 C175.162703,434.497153 188.16235,441.2306 205.316228,441.2306 C215.292779,441.2306 225.619443,439.073609 238.087187,436.255387 C244.702312,434.739436 249.656081,431.906071 254.897684,428.906137 C261.125664,425.340877 267.565733,421.656157 277.045729,420.291633 C278.42935,420.091413 279.821388,419.990461 281.181444,419.990461 C286.73108,419.990461 291.349885,421.654474 295.815515,423.261281 C300.26263,424.864723 304.859552,426.520323 310.407505,426.520323 C312.725323,426.518641 315.039775,426.242708 317.49057,425.672333 C352.023879,417.629885 354.277735,394.961287 356.662883,370.961815 C357.011313,367.462172 357.371521,363.844753 357.832733,360.296317 C358.494246,355.236978 357.2436,350.808584 356.031669,346.52657 C354.025249,339.431381 352.13329,332.729902 358.411767,323.868066 C363.402568,316.826718 372.389375,315.277117 381.078249,313.779674 C388.875007,312.43534 396.234123,311.165037 400.851245,306.248712 C410.129253,296.365587 413.972085,287.204263 412.601929,278.243158 C409.903699,260.581741 387.013346,246.532695 364.878767,232.946342 C345.083889,220.796862 326.388165,209.322072 321.331719,195.468198 C319.266386,190.074038 317.493936,184.52172 315.7804,179.151115 C308.256326,155.585733 301.759028,135.2306 274.805339,135.2306 M204.886023,443.2306 C187.150219,443.2306 173.739933,436.299067 161.402201,420.765367 C153.078981,410.354608 151.507134,398.761115 149.985722,387.547846 C148.597118,377.335612 147.164804,366.773436 140.551282,357.286321 C137.173914,352.439295 129.817338,349.340294 122.702842,346.342238 C114.922624,343.063219 107.572772,339.965901 106.918816,334.804264 C106.4128,330.796761 109.956598,326.220604 118.059592,320.431428 C104.936777,304.687426 104.064276,269.096023 116.31459,243.599086 C127.665505,219.983084 140.885825,214.363832 157.628089,207.250598 C165.174632,204.045606 173.728165,200.409916 182.918842,194.575315 C191.963262,188.834929 201.224546,179.65233 211.027151,169.927995 C225.740304,155.336445 240.954431,140.250266 256.252613,136.609529 C262.882946,135.029745 268.948423,134.2306 274.287657,134.2306 C302.481703,134.2306 309.453303,156.096895 316.836778,179.245186 C318.541433,184.595253 320.304926,190.12702 322.359254,195.497276 C327.234499,208.874125 345.678055,220.206845 365.205932,232.205799 C387.616929,245.976333 410.789473,260.217941 413.585174,278.539396 C415.02253,287.945755 411.058452,297.490072 401.471031,307.717448 C396.474745,313.045644 388.479343,314.423538 380.749558,315.759372 C372.038,317.263448 363.810604,318.680038 359.219468,325.174144 C353.335552,333.485254 355.141073,339.880098 357.050824,346.651802 C358.298215,351.066448 359.584271,355.629146 358.89165,360.964071 C358.431023,364.492087 358.072945,368.099176 357.726634,371.590179 C355.290693,396.131507 352.985879,419.313446 317.344476,427.622874 C314.757234,428.228542 312.304481,428.517917 309.845004,428.519599 C303.976218,428.519599 299.230419,426.808587 294.639283,425.153095 C290.128841,423.527886 285.870567,421.991845 280.655736,421.991845 C279.388172,421.991845 278.090348,422.08606 276.795887,422.272807 C267.672454,423.58677 261.393475,427.185447 255.317911,430.666355 C250.198904,433.598798 244.906741,436.630502 238.034327,438.206921 C225.464601,441.05356 215.045025,443.2306 204.886023,443.2306" id="Fill-19" fill="url(#linearGradient-10)"></path>
                                <path d="M275.825734,123.2306 C270.633181,123.2306 264.756599,123.944 258.35773,125.352291 C242.640232,128.80824 226.681809,144.561918 211.249043,159.794007 C200.634804,170.271221 190.608561,180.167957 180.742374,186.201567 C170.552704,192.433718 161.165,196.106716 152.884209,199.348982 C135.350498,206.210404 121.499759,211.63325 109.615181,236.410423 C97.240327,262.200488 98.3691429,300.692093 111.98401,317.165901 L112.477656,317.761523 L111.818899,318.212445 C102.670437,324.473199 98.4483285,329.414836 98.9049092,333.318343 C99.4592083,338.022742 106.927926,341.207801 114.834691,344.576258 C122.817272,347.978366 131.069422,351.494888 134.929298,357.269385 C142.120023,368.025902 143.395417,379.887852 144.63206,391.357768 C145.954628,403.650449 147.322685,416.362084 156.039839,427.655333 C169.091983,444.652413 183.368976,452.2306 202.334767,452.2306 C212.955745,452.2306 224.050152,449.986084 237.449364,447.053406 C244.656938,445.45667 250.029764,442.411261 255.719333,439.187503 C262.52087,435.334473 269.553224,431.350204 279.993928,429.973881 C281.348507,429.793849 282.709826,429.702991 284.040817,429.702991 C290.333545,429.702991 295.517673,431.711951 300.529953,433.651927 C305.550656,435.595268 310.741524,437.607593 317.099959,437.60591 C319.478896,437.60591 321.856148,437.336703 324.368185,436.781462 C362.414333,428.395653 364.735987,403.835529 367.19411,377.833463 C367.561397,373.946782 367.942161,369.925497 368.445917,365.986656 C369.129945,360.471271 367.69955,355.665919 366.314645,351.017045 C364.026687,343.331174 361.865089,336.072671 368.786246,326.43673 C374.258476,318.819844 384.183631,317.302187 393.78362,315.833325 C402.413165,314.512526 410.565911,313.262394 415.650637,307.945549 C425.880741,297.247922 430.104534,287.354551 428.562942,277.700102 C425.494922,258.492157 399.682104,243.350925 374.718426,228.707727 C352.558255,215.710059 331.624617,203.430838 325.773308,188.545354 C323.225891,182.210568 321.153587,175.571241 319.152045,169.152328 C311.781046,145.536113 304.819453,123.2306 275.825734,123.2306 M201.9063,454.2306 C182.346859,454.2306 167.65414,446.449297 154.270656,428.997308 C145.314677,417.386763 143.928032,404.477372 142.586823,391.995321 C141.370143,380.692664 140.114757,369.003044 133.125997,358.536562 C129.533172,353.154424 121.522939,349.739063 113.778592,346.434743 C105.441892,342.876375 97.5679676,339.518217 96.9150326,333.972882 C96.3967234,329.543008 100.497761,324.446885 109.817229,317.959382 C96.3731639,300.80855 95.3264486,262.218336 107.737261,236.317114 C119.875457,210.99297 133.977505,205.467825 151.832247,198.472223 C160.036005,195.257073 169.335279,191.614582 179.381727,185.463568 C189.071416,179.529589 199.02026,169.697387 209.553043,159.28979 C225.139341,143.888699 241.255728,127.962686 257.457939,124.395905 C263.98224,122.957416 269.986549,122.2306 275.310998,122.2306 C305.558041,122.2306 312.678061,145.071457 320.217104,169.254904 C322.209565,175.648191 324.271022,182.25683 326.793573,188.547487 C332.452903,202.954254 353.129738,215.09645 375.018204,227.950321 C400.265583,242.776016 426.372884,258.104761 429.545004,277.9862 C431.157147,288.09264 426.810418,298.377419 416.260807,309.422662 C410.783221,315.156431 401.953454,316.509115 393.416497,317.816374 C383.765513,319.295242 374.647983,320.691671 369.586054,327.74784 C363.075216,336.822942 365.141721,343.769752 367.32939,351.123714 C368.749692,355.906902 370.220478,360.851604 369.505279,366.649306 C369.003798,370.5694 368.625163,374.578663 368.258308,378.453331 C365.750903,405.009024 363.38149,430.090896 324.202027,438.738657 C321.558313,439.322465 319.050908,439.605116 316.536772,439.605116 C309.834092,439.606798 304.484401,437.532345 299.313089,435.526872 C294.241063,433.560095 289.450069,431.70436 283.516438,431.70436 C282.269467,431.70436 280.992205,431.790165 279.721674,431.956727 C269.649984,433.285857 262.780705,437.184079 256.135241,440.951071 C250.590342,444.097241 244.853602,447.35277 237.383554,449.008294 C223.885639,451.967713 212.704969,454.2306 201.9063,454.2306" id="Fill-21" fill="url(#linearGradient-11)"></path>
                                <path d="M276.849443,111.2306 C271.666383,111.2306 265.839234,111.883368 259.531547,113.17208 C242.921812,116.567145 226.057477,133.157206 209.751239,149.203854 C198.412241,160.361473 187.703843,170.899972 177.189346,177.123137 C166.136985,183.664275 156.003546,187.338617 147.062177,190.580585 C128.429126,197.338751 113.709505,202.675296 101.043549,229.139311 C88.3067775,255.758106 89.5949551,296.557777 103.75142,314.73938 L104.21341,315.336629 L103.565949,315.772368 C93.2251205,322.717279 88.4281764,328.190098 88.9036556,332.500385 C89.4634395,337.586254 97.4572223,341.028426 105.923112,344.675851 C114.539064,348.388888 123.450084,352.226423 127.523692,358.545484 C135.087521,370.285211 136.183483,383.273272 137.244038,395.834005 C138.388897,409.394079 139.570851,423.415128 148.925313,435.901836 C163.019393,454.80182 178.571945,463.2306 199.349711,463.2306 C210.621265,463.2306 222.477894,460.895441 236.809713,457.841901 C244.611281,456.166239 250.406394,452.909129 256.543785,449.46191 C263.917084,445.31818 271.539926,441.034812 282.937937,439.648521 C284.269953,439.487012 285.607027,439.402892 286.915438,439.402892 C293.944774,439.402892 299.685932,441.75824 305.236561,444.032833 C310.822598,446.32425 316.599164,448.693057 323.76676,448.693057 C326.214972,448.691374 328.659811,448.428921 331.239539,447.885509 C372.879374,439.135392 375.24834,412.622588 377.760623,384.546842 C378.136623,380.32404 378.527797,375.958234 379.055545,371.681596 C379.775508,365.700695 378.161914,360.507153 376.600589,355.486897 C374.030978,347.219626 371.602999,339.409966 379.158397,329.011105 C385.110317,320.819542 395.977208,319.330626 406.486646,317.892181 C415.950705,316.593375 424.892074,315.370277 430.447762,309.651829 C441.629953,298.14259 446.234682,287.514924 444.52498,277.168218 C441.092088,256.415921 412.349203,240.185892 384.552219,224.490864 C360.02289,210.641419 336.85424,197.557462 330.207648,181.640358 C327.20471,174.490195 324.881269,166.843726 322.635389,159.447934 C315.101911,134.651169 307.986584,111.2306 276.849443,111.2306 M198.923834,465.2306 C177.538869,465.2306 161.568778,456.593646 147.144832,437.230316 C137.556377,424.416199 136.357189,410.195674 135.196738,396.441149 C134.152501,384.04929 133.071211,371.236855 125.705971,359.793817 C121.899558,353.878832 113.237443,350.144115 104.859966,346.530524 C95.9654241,342.694869 87.5660525,339.072866 86.9125621,333.146106 C86.3786538,328.297703 91.0423515,322.682169 101.582409,315.500409 C87.5930005,296.680463 86.3904436,255.781946 99.1688741,229.050119 C112.09215,202.015478 127.080321,196.576586 146.05512,189.687547 C154.910924,186.472662 164.950759,182.82879 175.849562,176.372103 C186.17572,170.251878 196.805043,159.782894 208.05754,148.698186 C224.522801,132.479084 241.550603,115.709867 258.660933,112.208991 C265.084676,110.89511 271.033459,110.2306 276.338857,110.2306 C308.737155,110.2306 316.009761,134.19167 323.708483,159.560829 C325.943488,166.920914 328.252599,174.531662 331.225306,181.615848 C337.667576,197.06109 360.578474,210.009792 384.830039,223.717213 C412.921701,239.594807 441.964967,256.012422 445.505268,277.44667 C447.290576,288.255479 442.561193,299.277941 431.049321,311.138192 C425.092116,317.276923 415.432923,318.600897 406.09037,319.882813 C395.962954,321.272397 385.491951,322.707403 379.957494,330.329927 C372.822997,340.157953 375.150635,347.649257 377.613013,355.579643 C379.216423,360.73759 380.870359,366.072179 380.117498,372.340447 C379.592011,376.596679 379.202948,380.950484 378.82736,385.162976 C376.270663,413.799172 373.855444,440.845589 331.06025,449.845921 C328.35197,450.416222 325.781799,450.69212 323.204892,450.693803 C315.674595,450.693803 309.732549,448.25446 303.987561,445.897551 C298.36047,443.589429 293.044966,441.405797 286.39385,441.405797 C285.164345,441.405797 283.904523,441.484865 282.649754,441.636272 C271.628,442.97707 264.170126,447.172738 256.958153,451.230458 C250.982422,454.591703 244.802896,458.067345 236.737007,459.801802 C222.311377,462.878738 210.368336,465.2306 198.923834,465.2306" id="Fill-23" fill="url(#linearGradient-12)"></path>
                                <path d="M278.355392,99.2306 C273.19941,99.2306 267.437634,99.8311248 261.233292,101.017035 C243.769591,104.352724 226.04338,121.789811 208.90277,138.653289 C196.877755,150.482114 185.519114,161.653221 174.392694,168.063866 C162.51408,174.905139 151.668681,178.573892 142.097132,181.812016 C122.408821,188.471617 106.856738,193.731677 93.4484932,221.887376 C80.3902628,249.313025 81.8340723,292.416241 96.4791469,312.322714 L96.9183477,312.91651 L96.2772155,313.342092 C84.7688086,320.968926 79.4125783,326.972492 79.9022619,331.690901 C80.4693526,337.156182 88.9723472,340.861942 97.9734392,344.783016 C106.770917,348.6183 116.742963,352.963274 121.017177,359.828097 C128.932888,372.548458 129.84831,386.661632 130.73176,400.307171 C131.692617,415.136938 132.685447,430.467984 142.647396,444.148848 C157.740085,464.953585 174.522267,474.2306 197.056128,474.2306 C208.949887,474.2306 221.538627,471.803269 236.760889,468.634112 C245.132628,466.876274 251.335288,463.406014 257.903106,459.733897 C265.825548,455.303134 274.017232,450.719296 286.341778,449.3248 C287.649284,449.176771 288.968569,449.101075 290.254199,449.101075 C297.99322,449.101075 304.268238,451.802596 310.337959,454.413281 C316.469943,457.054244 322.810589,459.782679 330.765003,459.782679 C333.242028,459.782679 335.821702,459.515218 338.435031,458.987026 C383.553236,449.878225 385.962951,421.404601 388.5157,391.257245 C388.901053,386.700321 389.30155,381.990323 389.853496,377.379571 C390.60569,370.931919 388.813549,365.355617 387.078622,359.962668 C384.236437,351.112917 381.549067,342.754352 389.717192,331.593337 C396.130197,322.83274 407.906163,321.37264 419.293411,319.963005 C429.566671,318.689623 439.27284,317.486891 445.283664,311.368939 C457.387769,299.047246 462.362012,287.689421 460.487416,276.649521 C456.707933,254.356088 425.110718,237.038432 394.556814,220.291023 C367.728545,205.59078 342.392886,191.703013 334.970224,174.750382 C331.537391,166.879638 329.006517,158.278844 326.558099,149.958968 C318.877975,123.870622 311.625272,99.2306 278.355392,99.2306 M196.628819,476.2306 C173.480547,476.2306 156.279884,466.742081 140.857789,445.462298 C130.660445,431.447346 129.656849,415.913491 128.685193,400.889301 C127.811039,387.410928 126.909988,373.475033 119.188854,361.058042 C115.177831,354.607329 105.886582,350.555238 96.9029678,346.636031 C87.4721901,342.523386 78.5642238,338.636137 77.9102893,332.326718 C77.363943,327.06186 82.5802894,320.925693 94.3090837,313.050272 C79.8216609,292.540874 78.466722,249.340441 91.5706279,221.800018 C105.246096,193.051874 121.080052,187.691138 141.126759,180.904013 C150.60965,177.694636 161.355021,174.056333 173.072048,167.301167 C184.000655,161.000157 195.275561,149.898539 207.211127,138.144281 C224.514334,121.104979 242.410958,103.487048 260.388273,100.050593 C266.700674,98.8428711 272.574317,98.2306 277.846139,98.2306 C312.38363,98.2306 319.792086,123.416134 327.634257,150.083566 C330.06844,158.359318 332.586676,166.915974 335.979066,174.707291 C343.187475,191.184784 368.26393,204.944062 394.814679,219.507366 C425.670637,236.435652 457.573899,253.93752 461.467247,276.924598 C463.418964,288.431593 458.31693,300.185852 445.878726,312.861881 C439.458737,319.405107 428.994104,320.700296 418.87577,321.955115 C407.874877,323.319269 396.497426,324.73052 390.512832,332.917122 C382.773207,343.500665 385.353642,351.534199 388.087055,360.042075 C389.863941,365.574382 391.701346,371.293397 390.911245,378.031743 C390.363218,382.622094 389.964805,387.321779 389.581522,391.866714 C386.982595,422.584554 384.528239,451.598465 338.238418,460.950737 C335.506687,461.504136 332.801852,461.783358 330.202925,461.783358 C321.869883,461.783358 315.357435,458.979358 309.061845,456.26619 C302.897377,453.611894 297.077528,451.103938 289.732953,451.103938 C288.519224,451.103938 287.273554,451.176267 286.034609,451.315878 C274.095681,452.668257 266.070274,457.161048 258.312157,461.504136 C251.924108,465.080202 245.315839,468.779059 236.680206,470.594006 C221.362336,473.788244 208.690464,476.2306 196.628819,476.2306" id="Fill-25" fill="url(#linearGradient-13)"></path>
                                <path d="M279.386138,87.2306 C274.243277,87.2306 268.532915,87.7839244 262.415031,88.8771184 C244.047909,92.1583824 225.406298,110.443314 207.381022,128.124467 C194.641746,140.622198 182.60974,152.42533 170.845486,159.018131 C158.112946,166.150801 146.527193,169.808797 136.307145,173.036242 C115.508361,179.603816 99.0778107,184.792283 84.8886317,214.646572 C71.4808173,242.857705 73.0822782,288.262259 88.2498471,309.909183 L88.6657891,310.504554 L88.0326142,310.918285 C75.3253338,319.22656 69.3960554,325.757133 69.9012481,330.883372 C70.4754838,336.729438 79.5083294,340.696891 89.0682593,344.894757 C98.4732634,349.023666 109.131145,353.704219 113.617257,361.114393 C121.907469,374.812955 122.64505,390.045353 123.357372,404.779927 C124.137053,420.873425 124.940309,437.515202 135.537568,452.394414 C151.665003,475.102578 169.718906,485.2306 194.074247,485.2306 C207.620147,485.2306 222.76414,482.144429 236.124803,479.419853 C245.083554,477.583287 251.704946,473.898382 258.713653,469.999884 C267.210994,465.27224 275.994611,460.384822 289.287915,458.998988 C290.592996,458.859396 291.911549,458.788759 293.199791,458.788759 C301.648297,458.788759 308.463346,461.837929 315.056111,464.786189 C321.744862,467.779859 328.664319,470.872757 337.42436,470.872757 C339.972215,470.872757 342.624477,470.610391 345.30705,470.089021 C394.019415,460.620279 396.476335,430.18912 399.081445,397.973532 C399.475496,393.081069 399.886386,388.025467 400.462305,383.079184 C401.25209,376.168516 399.271735,370.20304 397.35537,364.434339 C394.219808,355.000915 391.261062,346.088861 400.088463,334.181455 C406.962452,324.832123 419.683204,323.407607 431.989698,322.028501 C443.102254,320.783941 453.598474,319.606655 460.078412,313.091219 C473.132592,299.959435 478.487634,287.873755 476.451708,276.139578 C472.315864,252.30122 437.782574,233.900242 404.384285,216.104724 C375.192566,200.551096 347.619149,185.858568 339.406399,167.873003 C335.550095,159.344407 332.827106,149.826892 330.19842,140.620516 C322.352778,113.162845 314.939917,87.2306 279.386138,87.2306 M193.648745,487.2306 C168.672274,487.2306 150.196481,476.886108 133.739534,453.692987 C122.910115,438.478125 122.095848,421.630275 121.308499,405.337406 C120.605268,390.775066 119.876802,375.718289 111.779553,362.326452 C107.555121,355.34043 97.6123113,350.969542 87.9958819,346.744966 C78.0059663,342.352215 68.5661858,338.205 67.9083789,331.513286 C67.3498319,325.830627 73.127092,319.179275 86.079662,310.610719 C71.0678706,288.389654 69.5571019,242.89138 83.0093359,214.560489 C97.4760393,184.095447 114.198801,178.808001 135.371433,172.117968 C145.500986,168.917583 156.981481,165.28835 169.540377,158.245149 C181.098262,151.761973 193.043092,140.035076 205.691153,127.616977 C223.884306,109.755027 242.696573,91.284282 261.591275,87.9073125 C267.814363,86.7939888 273.630318,86.2306 278.879313,86.2306 C315.716496,86.2306 323.277069,112.714921 331.281788,140.753186 C333.896191,149.910357 336.599761,159.378653 340.408647,167.810987 C348.401589,185.324812 375.713191,199.890516 404.624727,215.310553 C438.325971,233.28518 473.174592,251.871966 477.430989,276.408812 C479.545729,288.613328 474.061201,301.102061 460.664486,314.59144 C453.770132,321.532054 442.471332,322.798418 431.546018,324.024419 C419.634836,325.359735 407.319884,326.740458 400.87977,335.507461 C392.491471,346.830736 395.343089,355.414427 398.357897,364.500965 C400.319541,370.410661 402.346797,376.520487 401.520753,383.728501 C400.948747,388.652688 400.539931,393.697961 400.147939,398.573377 C397.50157,431.367653 394.998203,462.343949 345.099096,472.054418 C342.297949,472.599308 339.528767,472.873434 336.86221,472.873434 C327.708433,472.873434 320.615559,469.696594 313.754852,466.625704 C307.052289,463.625448 300.718164,460.788323 292.679798,460.788323 C291.461762,460.788323 290.211761,460.855593 288.970171,460.988452 C276.064708,462.333858 267.450971,467.131913 259.121555,471.770201 C252.309637,475.562565 245.265552,479.484424 236.03775,481.381447 C222.600658,484.122712 207.371841,487.2306 193.648745,487.2306" id="Fill-27" fill="url(#linearGradient-14)"></path>
                                <path d="M280.417259,75.2306 C275.293119,75.2306 269.634827,75.7451343 263.595722,76.7557064 C244.320798,79.9858382 224.764476,99.1194503 205.850146,117.625869 C192.403701,130.783485 179.700348,143.2147 167.301984,149.984356 C153.717366,157.406429 141.379663,161.045161 130.49613,164.255115 C108.560562,170.727149 91.2318345,175.838862 76.3345881,207.415459 C61.4895773,238.533012 66.1301175,286.769757 80.023093,307.502461 L80.4224424,308.092662 L79.7939306,308.499582 C65.8874749,317.490479 59.3782494,324.549351 59.9006051,330.083117 C60.4869914,336.311335 70.047785,340.536906 80.1730597,345.011336 C90.1820681,349.435322 101.523926,354.45119 106.220072,362.40293 C114.887806,377.077245 115.447232,393.431364 115.988123,409.245725 C116.584619,426.610416 117.197966,444.561944 128.430297,460.635255 C145.587153,485.253869 164.912628,496.2306 191.086016,496.2306 C204.32015,496.2306 217.837366,493.733596 235.487932,490.20416 C245.041986,488.283904 252.088732,484.389586 259.548308,480.266586 C268.612021,475.250718 277.989148,470.070064 292.230922,468.672751 C293.525016,468.543276 294.82922,468.477698 296.104779,468.477698 C305.274648,468.477698 312.634808,471.875979 319.75401,475.163281 C327.001274,478.509435 334.49455,481.96993 344.062084,481.96993 C346.683972,481.96993 349.417072,481.705937 352.178816,481.18804 C404.486838,471.359763 406.99246,438.971008 409.646364,404.683858 C410.050768,399.459486 410.470338,394.058557 411.071889,388.780378 C411.895863,381.405387 409.7323,375.056101 407.639507,368.91532 C404.227345,358.902079 401.00222,349.442048 410.460228,336.773743 C417.810277,326.856348 431.47072,325.460716 444.681264,324.112165 C456.631413,322.889726 467.917665,321.737909 474.868366,314.8186 C488.874237,300.879094 494.61341,288.0645 492.416146,275.63833 C487.927257,250.259684 450.450766,230.774642 414.206023,211.930245 C382.650687,195.52232 352.842714,180.025758 343.837976,161.00985 C339.566455,151.872663 336.681704,141.465956 333.887943,131.40059 C325.877367,102.516049 318.308265,75.2306 280.417259,75.2306 M190.663077,498.2306 C163.86169,498.2306 144.112502,487.034033 126.624261,461.927088 C115.162964,445.509716 114.541751,427.348712 113.94074,409.786293 C113.380133,393.424407 112.853196,377.968806 104.375069,363.601083 C99.9390356,356.081779 89.3430602,351.393983 79.0972536,346.86256 C68.5416822,342.19326 58.5719703,337.782898 57.9069862,330.707488 C57.3345948,324.608983 63.6780386,317.442776 77.8581945,308.17984 C63.7840994,286.429007 59.3312307,239.065123 74.4558325,207.331707 C89.6359899,175.125813 107.269013,169.92014 129.597329,163.328979 C140.383541,160.14269 152.609148,156.534366 166.016576,149.20338 C178.196728,142.54328 190.809542,130.19326 204.163097,117.115185 C223.247301,98.427897 242.981337,79.1050329 262.792815,75.7808681 C268.930871,74.7518398 274.688455,74.2306 279.914052,74.2306 C319.095929,74.2306 327.171699,103.367905 334.981475,131.54512 C337.752523,141.556288 340.622897,151.90542 344.838392,160.931276 C353.616183,179.480687 383.159998,194.853899 414.436139,211.128351 C450.988382,230.150241 488.784735,249.817796 493.39417,275.903326 C495.673634,288.804852 489.804939,302.025848 475.453065,316.322951 C468.079317,323.66907 455.951353,324.908275 444.224063,326.108808 C431.409229,327.420315 418.16005,328.772175 411.249266,338.104049 C402.240835,350.183362 405.350267,359.310103 408.641518,368.973216 C410.781252,375.256678 412.99506,381.751998 412.133105,389.427675 C411.535461,394.682109 411.119636,400.072737 410.713911,405.281772 C408.018621,440.154397 405.473163,473.09339 351.961298,483.156681 C349.085873,483.696416 346.239067,483.970488 343.50169,483.970488 C333.531978,483.970488 325.856882,480.424376 318.434312,476.995963 C311.185143,473.644895 304.336648,470.480465 295.587476,470.480465 C294.375353,470.480465 293.136294,470.542678 291.903969,470.667103 C278.052097,472.025689 268.85343,477.117025 259.957794,482.0419 C252.711991,486.048721 245.222081,490.191737 235.397151,492.169085 C217.6547,495.71856 204.05872,498.2306 190.663077,498.2306" id="Fill-29" fill="url(#linearGradient-15)"></path>
                                <path d="M281.943052,62.2306 C276.852565,62.2306 271.255721,62.7074278 265.30897,63.6492892 C245.16908,66.8354427 224.73648,86.8689514 204.978461,106.241978 C190.854295,120.090204 177.512375,133.171799 164.515317,140.137192 C150.111898,147.855737 137.074465,151.486705 125.572926,154.688023 C102.568166,161.092343 84.399873,166.15211 68.7465426,199.504785 C53.5827468,231.517961 58.4494942,282.309393 72.7553428,304.646165 L73.133849,305.237567 L72.5147812,305.635204 C57.4350979,315.330142 50.366286,322.934114 50.8995591,328.885195 C51.4950753,335.508552 61.5683846,340.007246 72.2321633,344.768785 C82.8219231,349.49831 94.8247723,354.85799 99.7218002,363.37181 C108.743704,379.056582 109.127256,396.567789 109.495669,413.501074 C109.902773,432.174866 110.325018,451.483866 122.166371,468.79457 C140.317842,495.375615 160.866518,507.2306 188.800269,507.2306 C203.738643,507.2306 219.859639,504.051186 235.449044,500.974551 C245.576185,498.967831 253.030232,494.85161 260.921664,490.491079 C270.535719,485.181946 280.47613,479.692529 295.641608,478.282264 C296.9218,478.159266 298.212085,478.09861 299.475455,478.09861 C309.341847,478.09861 317.224868,481.855945 324.850504,485.488599 C332.635954,489.197072 340.685517,493.035284 351.034715,493.033599 C353.733043,493.033599 356.539035,492.769069 359.373626,492.250118 C415.158697,482.041285 417.707305,447.617011 420.407315,411.174222 C420.817784,405.608984 421.243393,399.853352 421.869189,394.229142 C422.728819,386.37075 420.387128,379.622709 418.121138,373.097076 C414.43533,362.480496 410.953073,352.451947 421.019654,338.991249 C428.833702,328.482503 443.400299,327.114361 457.484091,325.790026 C470.243952,324.590374 482.297269,323.458119 489.702531,316.122047 C504.624083,301.342069 510.734012,287.766797 508.382228,274.621176 C503.55249,247.640808 463.220561,227.026007 424.210881,207.090223 C390.362341,189.791313 358.391192,173.451114 348.617323,153.355264 C343.949081,143.635053 340.921032,132.336086 337.990554,121.409484 C329.831644,90.9767474 322.12526,62.2306 281.943052,62.2306 M188.37555,509.2306 C159.811274,509.2306 138.83097,497.153866 120.355125,470.072194 C108.286659,452.413677 107.859725,432.898496 107.446237,414.023545 C107.064685,396.493073 106.703304,379.931369 97.8671027,364.559142 C93.2262904,356.485522 82.0049708,351.469836 71.1500754,346.617577 C60.0548192,341.660859 49.5781138,336.978766 48.9057759,329.503254 C48.320842,322.976291 55.2139863,315.276699 70.5869924,305.302611 C56.0947489,281.93595 51.4135963,232.067192 66.8639213,199.420585 C82.8067338,165.422759 101.292664,160.272288 124.696747,153.752064 C136.099597,150.574509 149.023613,146.97238 163.241879,139.348605 C176.014618,132.494788 189.264717,119.496462 203.291366,105.731546 C223.224504,86.1725605 243.836704,65.9480743 264.526222,62.6711145 C270.563816,61.7158259 276.255156,61.2306 281.440562,61.2306 C322.92213,61.2306 331.138099,91.9026069 339.085133,121.565411 C341.996356,132.429081 345.005068,143.663409 349.610583,153.263469 C359.151058,172.893216 390.860194,189.111219 424.430026,206.279456 C463.750027,226.392744 504.4063,247.188382 509.359749,274.879956 C511.795293,288.508402 505.554317,302.492344 490.28048,317.632067 C482.447744,325.397366 469.517005,326.613801 457.01152,327.7898 C443.327763,329.078681 429.178412,330.411368 421.806227,340.326488 C412.196837,353.188344 415.558527,362.881069 419.118556,373.141576 C421.433079,379.811747 423.824921,386.707684 422.932393,394.872284 C422.31048,400.470915 421.886907,406.212755 421.4751,411.765896 C418.735324,448.801439 416.146823,483.778141 359.146015,494.220608 C356.201175,494.759748 353.28491,495.032687 350.474537,495.032687 C339.713769,495.034372 331.479311,491.108759 323.515468,487.309508 C315.7382,483.602921 308.394589,480.100196 298.958326,480.100196 C297.756522,480.100196 296.527825,480.159165 295.302489,480.273732 C280.534587,481.648539 270.768879,487.046677 261.325893,492.264541 C253.667965,496.498474 245.751186,500.875616 235.351799,502.937826 C219.684645,506.031142 203.484664,509.2306 188.37555,509.2306" id="Fill-31" fill="url(#linearGradient-16)"></path>
                                <path d="M282.973315,50.2306 C277.906641,50.2306 272.360232,50.6752652 266.490633,51.5494365 C245.434477,54.6890422 224.082064,75.5765155 203.429896,95.7750946 C188.601878,110.277243 174.595301,123.977647 160.970829,131.119239 C145.721991,139.114791 131.95444,142.726011 119.807888,145.911094 C95.6864788,152.235783 76.6351102,157.229844 60.1860933,192.287652 C44.6780302,225.110343 49.7834199,278.347208 64.5255904,302.241224 L64.8874957,302.830743 L64.2747816,303.221509 C47.9957761,313.591977 40.3503161,321.72396 40.8990656,328.073913 C41.5050465,335.079074 52.106347,339.835644 63.3304613,344.871814 C74.5310096,349.896194 87.226311,355.592625 92.3216011,364.662784 C101.756388,381.320885 101.958382,399.969873 102.151959,418.002394 C102.365736,437.933163 102.589612,458.542721 115.054304,477.033381 C134.233602,505.527324 156.053967,518.2306 185.809316,518.2306 C201.462141,518.2306 218.414459,514.939404 234.811294,511.75769 C245.535474,509.669111 253.413227,505.338678 261.757248,500.753911 C271.937728,495.158541 282.464965,489.37284 298.580692,487.952943 C299.849885,487.840093 301.130862,487.781141 302.383223,487.781141 C312.964324,487.781141 321.385776,491.89261 329.529487,495.869331 C337.861725,499.937007 346.478438,504.142798 357.611655,504.141114 C360.404218,504.141114 363.30956,503.873304 366.243518,503.347791 C425.629653,492.876263 428.223588,456.467617 430.969019,417.918177 C431.391522,412.007836 431.825809,405.900427 432.473872,399.934502 C433.372743,391.610505 430.847823,384.47565 428.403699,377.579971 C424.43789,366.384177 420.692591,355.809904 431.386472,341.592409 C439.683362,330.516203 455.183009,329.177155 470.172621,327.881899 C483.770161,326.706231 496.613591,325.596252 504.491344,317.861773 C520.362995,302.273227 526.858775,287.96983 524.34732,274.13131 C519.171233,245.610418 475.887358,223.914463 434.032589,202.932667 C397.818493,184.782242 363.610867,167.633999 353.044915,146.50735 C347.979924,136.254785 344.815357,124.105657 341.75347,112.359085 C333.429648,80.4088807 325.567045,50.2306 282.973315,50.2306 M185.385221,520.2306 C154.992521,520.2306 132.742105,507.298896 113.236619,478.301092 C100.544681,459.45934 100.319301,438.641959 100.10233,418.508384 C99.9004972,399.830005 99.7121196,382.18239 90.4614362,365.836703 C85.619124,357.215005 73.201343,351.636756 62.2434881,346.717049 C50.5909909,341.485756 39.5826777,336.54247 38.9048549,328.687108 C38.3060834,321.751349 45.7604523,313.542294 62.3578602,302.877597 C47.7215971,278.410436 42.7548211,225.137476 58.3043789,192.20357 C75.0481158,156.48896 94.4257745,151.404196 118.960269,144.965292 C131.002977,141.805632 144.653621,138.223223 159.712052,130.324071 C173.103678,123.297362 187.013341,109.680167 201.743793,95.2646355 C222.571286,74.8767386 244.108559,53.7932446 265.724883,50.5678978 C271.680641,49.6802959 277.316831,49.2306 282.471984,49.2306 C326.374045,49.2306 334.751801,81.406592 342.852035,112.523188 C345.894669,124.203491 349.03822,136.281278 354.031907,146.400277 C364.362397,167.066076 398.302313,184.092202 434.237014,202.118774 C476.41172,223.274691 520.021123,245.151469 525.324288,274.388437 C527.921207,288.711335 521.292672,303.426664 505.066973,319.373182 C496.754814,327.543499 482.993161,328.732583 469.687314,329.881244 C455.098145,331.144435 440.016168,332.449732 432.171588,342.929161 C421.940332,356.544672 425.563236,366.781569 429.398065,377.618061 C431.890704,384.661612 434.469122,391.942643 433.539007,400.574445 C432.893142,406.513126 432.457518,412.610126 432.038715,418.505015 C429.2551,457.650451 426.621178,494.623199 366.005655,505.316529 C362.966385,505.863912 359.952344,506.141814 357.050993,506.141814 C345.494367,506.143498 336.692762,501.841913 328.180452,497.683489 C319.863246,493.619384 312.008575,489.782653 301.866462,489.782653 C300.670601,489.782653 299.451193,489.838233 298.235149,489.946025 C282.519078,491.332167 272.168405,497.024946 262.157483,502.529088 C254.069022,506.978888 245.706405,511.576902 234.708183,513.720958 C218.238603,516.921041 201.207254,520.2306 185.385221,520.2306" id="Fill-33" fill="url(#linearGradient-17)"></path>
                                <path d="M283.976233,38.2306 C278.937752,38.2306 273.442911,38.6439688 267.65169,39.4572636 C245.680748,42.5440868 223.405004,64.2409085 201.863478,85.2252571 C186.335459,100.351867 171.667957,114.638297 157.42145,121.941146 C141.327613,130.193399 126.836929,133.772568 114.050436,136.931647 C88.8108808,143.167466 68.8775595,148.094285 51.636929,184.779927 C35.7872695,218.333376 41.1288675,273.897875 56.3015653,299.309975 L56.6518341,299.896421 L56.0422318,300.279543 C38.5591075,311.312794 30.3345286,319.95153 30.8986633,326.696499 C31.5150015,334.068243 42.6495052,339.075719 54.4390788,344.377258 C66.2387563,349.685518 79.616327,355.702891 84.9242452,365.287671 C94.7250334,382.882731 94.7536612,402.605128 94.7789209,421.673866 C94.8092327,442.831291 94.8412284,464.711272 107.939258,484.363095 C128.414822,515.112021 150.80676,528.2306 182.807512,528.2306 C199.170787,528.2306 216.953661,524.836271 234.152191,521.551165 C245.471933,519.385179 253.773976,514.853246 262.566057,510.054135 C273.313245,504.186314 284.427541,498.120211 301.493037,496.691904 C302.757709,496.584361 304.030801,496.530589 305.276949,496.530589 C316.573115,496.530589 325.530228,500.981865 334.192642,505.28695 C343.077343,509.701259 352.265161,514.2668 364.207977,514.265119 C367.07917,514.265119 370.061506,513.999622 373.074154,513.473669 C436.05348,502.643742 438.693968,464.361757 441.491065,423.83481 C441.918797,417.609072 442.365053,411.17497 443.036963,404.89378 C443.971574,396.122296 441.26036,388.619484 438.641764,381.365365 C434.39644,369.616281 430.388557,358.519176 441.709983,343.574045 C450.478489,331.95939 466.910807,330.65543 482.80425,329.393478 C497.246099,328.249153 510.888055,327.16532 519.227145,319.029012 C536.073724,302.697583 542.971323,287.717164 540.320732,273.229091 C534.832627,243.244729 488.580316,220.496001 443.850327,198.493354 C405.251725,179.508635 368.791782,161.574141 357.436677,139.45891 C351.980568,128.723083 348.691747,115.765819 345.509016,103.235367 C337.397264,71.2765802 329.007655,38.2306 283.976233,38.2306 M182.385436,530.2306 C150.166649,530.2306 126.647455,516.473938 106.120115,485.625206 C92.7930766,465.619487 92.7611052,443.530189 92.7324992,422.170143 C92.7038932,402.404708 92.6769699,383.734831 83.0603003,366.452888 C78.005449,357.317066 64.907259,351.422554 53.3504285,346.220327 C41.1339769,340.722367 29.5906081,335.528542 28.9040637,327.305126 C28.2915584,319.970592 36.3113392,311.263248 54.1362526,299.929587 C39.0676129,273.965504 33.861318,218.364189 49.7561667,184.697585 C67.2983854,147.33935 87.5665892,142.326998 113.227868,135.983844 C125.907064,132.848394 140.277381,129.296227 156.173912,121.140024 C170.182447,113.953356 184.751322,99.7497326 200.178378,84.7126773 C221.900441,63.5391457 244.362894,41.644763 266.899387,38.4757065 C272.777082,37.6489961 278.35189,37.2306 283.477415,37.2306 C329.827574,37.2306 338.360581,70.8719996 346.614258,103.406078 C349.774381,115.863864 353.043881,128.745087 358.421812,139.337734 C369.53609,160.998554 405.729431,178.813155 444.049714,197.676266 C489.097459,219.84958 535.679832,242.779031 541.296707,273.484936 C544.036154,288.45814 537.002439,303.8531 519.796762,320.545257 C511.023129,329.114816 496.423964,330.272546 482.304371,331.39331 C466.81842,332.623294 450.805782,333.895285 442.49321,344.913049 C431.643117,359.252778 435.523439,370.008415 439.635974,381.399207 C442.308113,388.799273 445.067752,396.451385 444.103561,405.531756 C443.433843,411.789215 442.989609,418.211343 442.562201,424.420072 C439.723475,465.548914 437.046288,504.3959 372.83083,515.445591 C369.71614,515.99001 366.625007,516.263899 363.648299,516.263899 C351.273673,516.26558 341.899313,511.604412 332.832889,507.094471 C323.97512,502.69039 315.610384,498.531634 304.761973,498.531634 C303.568934,498.531634 302.352337,498.582043 301.139106,498.686222 C284.476943,500.079195 273.542714,506.052682 262.968584,511.831253 C254.449039,516.484019 245.640069,521.298095 234.046219,523.519459 C216.774916,526.81958 198.916348,530.2306 182.385436,530.2306" id="Fill-35" fill="url(#linearGradient-18)"></path>
                                <path d="M284.88762,26.2306 C279.913967,26.2306 274.517419,26.6102901 268.846242,27.35455 C245.972831,30.430712 222.7793,52.966833 200.345632,74.7620542 C184.108813,90.5393549 168.770014,105.441352 153.892862,112.925952 C136.955148,121.445459 121.737657,125.002114 108.312839,128.140438 C81.9518053,134.302842 61.1305314,139.171612 43.0959858,177.565676 C26.9080266,211.910831 32.4848527,269.921098 48.0864869,296.907658 L48.4217704,297.490634 L47.8202819,297.870324 C29.1269631,309.583596 20.3202955,318.751601 20.8981962,325.900191 C21.5266422,333.655278 33.1992255,338.927259 45.5558547,344.506687 C57.9596593,350.107957 72.0162937,356.455166 77.5392048,366.577436 C87.7072246,385.148651 87.5623282,405.979527 87.4208015,426.123264 C87.2641112,448.553542 87.1023664,471.74824 100.838881,492.599276 C122.355994,525.284548 145.97916,539.2306 179.831,539.2306 C196.911925,539.2306 215.526056,535.720986 233.52859,532.328976 C245.44379,530.079396 254.17464,525.334949 263.414312,520.308255 C274.731394,514.157611 286.42925,507.796962 304.446947,506.358843 C305.705524,506.258041 306.97421,506.204279 308.217623,506.204279 C320.227175,506.204279 329.719573,511.007527 338.903645,515.649491 C348.340443,520.420818 358.099047,525.35847 370.853298,525.35679 C373.803456,525.35679 376.866498,525.091343 379.959868,524.563809 C446.534703,513.35287 449.225395,473.119157 452.072778,430.523301 C452.510837,423.974487 452.965744,417.202226 453.661584,410.59293 C454.632052,401.356043 451.737494,393.468233 448.938972,385.84251 C444.416857,373.516021 440.145783,361.87331 452.092996,346.168252 C461.342777,333.986247 478.713495,332.709413 495.513052,331.47458 C510.789511,330.35399 525.220181,329.295562 534.035273,320.760934 C551.822146,303.614397 559.098978,287.897578 556.283607,272.713333 C550.438891,241.185612 501.244883,217.362577 453.668323,194.324122 C412.708136,174.487834 374.022486,155.753654 361.876462,132.602637 C356.035115,121.386657 352.631735,107.61533 349.339554,94.3009752 C341.068667,60.8361628 332.514725,26.2306 284.88762,26.2306 M179.40857,541.2306 C145.360624,541.2306 120.56588,526.619647 99.0137982,493.856302 C85.0531807,472.646312 85.2148087,449.242243 85.3730694,426.610973 C85.5195448,405.720183 85.6559184,385.988592 75.6686556,367.735401 C70.3955425,358.068685 56.6201238,351.844288 44.4643522,346.349011 C31.6772212,340.573173 19.60058,335.116536 18.9035593,326.50822 C18.2755672,318.760063 26.8654213,309.538548 45.9190041,297.513113 C30.4161862,269.993046 24.9780778,211.949073 41.2115889,177.485569 C59.5546819,138.407107 80.7178466,133.45447 107.511053,127.186393 C120.828526,124.073354 135.922223,120.541996 152.65577,112.1168 C167.288154,104.751683 182.526643,89.9357699 198.66082,74.2479372 C221.275269,52.2617874 244.659135,29.526358 268.108663,26.3696395 C273.859925,25.6136398 279.336757,25.2306 284.389315,25.2306 C333.342392,25.2306 342.038315,60.4366636 350.446337,94.4818478 C353.71762,107.718562 357.100023,121.407195 362.85802,132.47335 C374.75788,155.16846 413.179884,173.787891 453.857944,193.501002 C501.755389,216.711871 551.284265,240.71402 557.25945,272.966645 C560.163703,288.641037 552.752386,304.77239 534.601226,322.281342 C525.34634,331.249178 509.919286,332.381497 495.000686,333.478537 C478.612281,334.683096 461.664913,335.927975 452.876391,347.51157 C441.402488,362.604683 445.545888,373.906038 449.931731,385.870992 C452.782108,393.642669 455.730135,401.683145 454.728379,411.23226 C454.033041,417.812817 453.58183,424.573134 453.144088,431.108331 C450.260038,474.306151 447.530882,515.109972 379.707738,526.539007 C376.515585,527.081647 373.347003,527.357166 370.292907,527.357166 L370.287856,527.357166 C357.100023,527.357166 347.1498,522.322209 337.527884,517.455251 C328.12989,512.700853 319.253819,508.206855 307.702469,508.206855 C306.512146,508.206855 305.294885,508.257255 304.086043,508.354695 C286.475326,509.760855 274.954281,516.028932 263.813736,522.090369 C254.863586,526.959007 245.6087,531.993964 233.417572,534.297243 C215.343859,537.704282 196.653939,541.2306 179.40857,541.2306" id="Fill-37" fill="url(#linearGradient-19)"></path>
                                <path d="M286.495932,13.2306 C281.547326,13.2306 276.193207,13.587348 270.579962,14.294113 C246.79771,17.31974 222.685664,40.7893843 199.366134,63.4849526 C182.487701,79.9105064 166.548175,95.4273623 151.118484,103.107541 C133.385276,111.869744 117.496228,115.405251 103.474897,118.521748 C76.0161043,124.631899 54.3287232,129.454729 35.5119039,169.673019 C19.0171102,204.863182 24.8204911,265.427889 40.8172273,294.050186 L41.143657,294.632426 L40.5446417,295.004319 C20.6761805,307.421506 11.30563,317.137841 11.8979148,324.705274 C12.5373131,332.858312 24.7228988,338.401369 37.6269663,344.270883 C50.606752,350.17237 65.3196436,356.864761 71.0456238,367.543643 C81.563726,387.121032 81.2473921,409.103104 80.9394713,430.359901 C80.597898,454.103837 80.2428637,478.653822 94.5889426,500.74864 C117.104176,535.432288 141.916196,550.2306 177.554239,550.2306 C195.319416,550.2306 214.731885,546.60254 233.504956,543.09564 C245.99678,540.758267 255.133445,535.792402 264.808551,530.532052 C276.671073,524.083663 288.937424,517.416514 307.872028,515.967645 C309.123902,515.870045 310.387555,515.821244 311.622603,515.821244 C324.323073,515.821244 334.334704,520.980628 344.016541,525.970052 C353.987789,531.110926 364.300611,536.425125 377.840712,536.425125 C380.864393,536.425125 384.002492,536.155881 387.170879,535.629173 C457.223695,524.014669 459.957964,481.756857 462.852082,437.015271 C463.296296,430.125995 463.759018,423.004497 464.4775,416.054642 C465.482029,406.333259 462.411234,398.047281 459.438032,390.03223 C454.647592,377.105163 450.119643,364.89664 462.670359,348.403775 C472.38753,335.62984 490.660861,334.381222 508.333494,333.171308 C524.417727,332.072457 539.610167,331.03082 548.884808,322.085195 C567.580478,304.092979 575.221288,287.611894 572.248085,271.701269 C566.061065,238.569138 514.014043,213.62875 463.678252,189.507872 C420.4381,168.786197 379.592327,149.21554 366.681529,124.988647 C360.465904,113.281591 356.960992,98.6650188 353.570498,84.5280373 C345.164093,49.4758619 336.468276,13.2306 286.495932,13.2306 M177.132345,552.2306 C140.836028,552.2306 115.603817,537.205687 92.7609809,501.996672 C78.1910013,479.544279 78.5474739,454.781525 78.8938578,430.834886 C79.2116565,408.782977 79.510959,387.952716 69.1732516,368.69074 C63.696688,358.47501 49.2645893,351.907395 36.5324617,346.110461 C23.2000476,340.044293 10.6074824,334.314667 9.90294447,325.307123 C9.26230255,317.134203 18.4027999,307.379535 38.6528015,294.639741 C22.7510938,265.501943 17.0862051,204.904207 33.6251917,169.59423 C52.7570126,128.680831 74.7961035,123.77405 102.695134,117.563169 C116.605976,114.466983 132.369803,110.956851 149.894134,102.294263 C165.072807,94.7338486 180.913982,79.3050848 197.685012,62.9710234 C221.186986,40.0794428 245.491023,16.4104505 269.857276,13.3075341 C275.544024,12.5906998 280.975187,12.2306 285.999434,12.2306 C337.306276,12.2306 346.140745,49.0802561 354.680956,84.7200441 C358.050632,98.768986 361.532966,113.299183 367.656898,124.845936 C380.323448,148.622621 420.900799,168.079792 463.859118,188.679522 C514.518593,212.971117 566.904942,238.090605 573.223924,271.951769 C576.28589,288.353139 568.51075,305.250908 549.449551,323.609269 C539.728945,332.992057 523.506076,334.100963 507.814553,335.174531 C490.552532,336.357476 472.703676,337.579123 463.453883,349.750161 C451.377531,365.626526 455.774587,377.491311 460.42891,390.05442 C463.453883,398.212196 466.581426,406.650984 465.543956,416.686664 C464.827648,423.609331 464.366924,430.720462 463.921333,437.596013 C460.988841,482.941669 458.221133,525.775041 386.914829,537.602806 C383.647723,538.148004 380.407521,538.425651 377.28166,538.425651 C363.298515,538.425651 352.794341,533.007326 342.63487,527.769051 C332.71585,522.653614 323.348354,517.820873 311.108898,517.820873 C309.923458,517.820873 308.711115,517.869671 307.507179,517.960538 C288.977326,519.380744 276.895929,525.953408 265.207998,532.312367 C255.842183,537.405929 246.158569,542.67281 233.39113,545.062257 C214.546842,548.585851 195.06023,552.2306 177.132345,552.2306" id="Fill-39" fill="url(#linearGradient-20)"></path>
                                <path d="M287.603914,1.2306 C282.667989,1.2306 277.343184,1.56873174 271.779327,2.23658399 C247.092972,5.19902181 222.080025,29.5125447 197.890292,53.0236355 C180.294699,70.1287279 163.673832,86.2850327 147.589992,94.1276705 C128.997786,103.193302 112.361769,106.707517 97.6853066,109.807899 C69.1236113,115.840439 46.5651582,120.604564 26.9696064,162.489161 C10.1450406,198.452248 16.1802686,261.459145 32.5991188,291.667263 L32.9156106,292.245957 L32.3213468,292.616051 C11.2426609,305.712348 1.29000603,315.95387 1.89773749,323.926041 C2.54755562,332.465129 15.2711966,338.270565 28.7422967,344.415815 C42.3245057,350.611533 57.7181248,357.634916 63.6607621,368.847096 C74.5460574,389.397431 74.0561686,412.48796 73.584798,434.818113 C73.054506,459.829768 72.5056959,485.694324 87.4885491,508.988404 C111.041931,545.607568 137.086844,561.2306 174.574279,561.2306 C193.060426,561.2306 213.302429,557.490964 232.879463,553.874132 C245.966733,551.45506 255.530507,546.27542 265.658242,540.789611 C278.085593,534.057256 290.938861,527.097799 310.827336,525.635926 C312.074785,525.546766 313.332334,525.497981 314.566315,525.497981 C327.975127,525.497981 338.523729,531.009024 348.723854,536.336702 C359.248887,541.832604 370.132499,547.518601 384.480686,547.518601 C387.583315,547.518601 390.802103,547.251123 394.051194,546.721215 C467.70286,534.726791 470.487313,490.519009 473.43338,443.71552 C473.887916,436.502043 474.357603,429.042957 475.101696,421.763872 C476.142078,411.579546 472.886253,402.90756 469.736487,394.523239 C464.665886,381.021521 459.87474,368.268403 473.0546,351.018637 C483.247991,337.676732 502.459712,336.453738 521.03845,335.2728 C537.95729,334.196162 553.938439,333.180085 563.692445,323.836882 C583.326716,305.031037 591.346751,287.814917 588.212136,271.207769 C581.671869,236.536649 526.678063,210.525738 473.493985,185.369409 C427.893924,163.801314 384.822429,143.425933 371.120694,118.170352 C364.526555,106.011067 361.080499,91.2678498 357.427376,75.6582754 C348.868632,39.0677104 340.020331,1.2306 287.603914,1.2306 M174.153315,563.2306 C136.004334,563.2306 109.537595,547.379335 85.6583113,510.231559 C70.4532269,486.57662 71.0050379,460.499329 71.538343,435.283319 C72.0295894,412.107803 72.4939181,390.219162 61.7823921,369.98916 C56.0926825,359.239973 40.9801275,352.342999 27.6474993,346.25684 C13.747919,339.911624 0.617172897,333.917985 -0.0978260904,324.526325 C-0.748895756,315.940433 8.95658461,305.674035 30.4402012,292.241757 C14.1129891,261.5334 8.21298567,198.498421 25.0852794,162.413788 C45.0009453,119.817403 67.9145599,114.974381 96.9233306,108.844485 C111.487439,105.76608 127.996345,102.278902 146.376025,93.3094716 C162.203579,85.5865428 178.719215,69.5199574 196.208931,52.5113463 C220.584508,28.8025771 245.789484,4.28635724 271.070166,1.24832423 C276.704358,0.57208433 282.099657,0.2306 287.108014,0.2306 C340.862479,0.2306 349.851278,38.6753432 358.542301,75.8584449 C362.167767,91.3715901 365.593032,106.025137 372.093635,118.015779 C385.54571,142.828064 428.349755,163.088346 473.668915,184.537936 C527.177756,209.86497 582.510266,236.053286 589.187516,271.458314 C592.412582,288.559446 584.254864,306.190467 564.251716,325.364055 C554.051624,335.139254 536.997637,336.22763 520.508919,337.277316 C502.34458,338.431297 483.557771,339.627334 473.833785,352.364867 C461.135403,368.993304 465.793832,381.401129 470.724801,394.539023 C473.927997,403.071085 477.238862,411.892483 476.167205,422.39607 C475.426971,429.647986 474.955913,437.095036 474.505043,444.294804 C471.520553,491.707296 468.700933,536.490527 393.789228,548.696489 C390.44135,549.2432 387.12039,549.519079 383.920559,549.519079 C369.122604,549.519079 358.044325,543.728985 347.331117,538.128978 C336.873626,532.661865 326.994863,527.499227 314.052541,527.499227 C312.866484,527.499227 311.656873,527.542964 310.453993,527.63212 C290.979103,529.063663 278.307638,535.930358 266.053397,542.571639 C256.25707,547.880627 246.127637,553.371291 232.763044,555.840745 C213.116554,559.474272 192.798807,563.2306 174.153315,563.2306" id="Fill-41" fill="#2C3374"></path>
                            </g>
                        </g>
                    </g>
                </g>
            </g>
        </g>
    </g>
</svg>